<svg aria-hidden="true" xmlns="http://www.w3.org/2000/svg" xmlns:xlink="http://www.w3.org/1999/xlink"><symbol viewBox="0 0 34 36" id="dashbord" xmlns="http://www.w3.org/2000/svg">
<path d="M24.2589 14.2526C24.8768 13.0017 25.9479 12.0613 27.2798 11.6074C27.837 11.417 28.4114 11.3439 28.9832 11.3413V3.91304C28.9832 1.75565 27.2099 0 25.0309 0H3.95225C1.77324 0 0 1.75565 0 3.91304V30C0 32.1574 1.77324 33.913 3.95225 33.913H17.0592L16.917 33.5035C16.3439 31.8483 16.4559 30.0796 17.2292 28.5157L24.2589 14.2526ZM5.26967 7.82609H21.0787C21.8072 7.82609 22.3961 8.41043 22.3961 9.13043C22.3961 9.85044 21.8072 10.4348 21.0787 10.4348H5.26967C4.54114 10.4348 3.95225 9.85044 3.95225 9.13043C3.95225 8.41043 4.54114 7.82609 5.26967 7.82609ZM5.26967 13.0435H19.7613C20.4898 13.0435 21.0787 13.6278 21.0787 14.3478C21.0787 15.0678 20.4898 15.6522 19.7613 15.6522H5.26967C4.54114 15.6522 3.95225 15.0678 3.95225 14.3478C3.95225 13.6278 4.54114 13.0435 5.26967 13.0435ZM14.4916 26.087H5.26967C4.54114 26.087 3.95225 25.5026 3.95225 24.7826C3.95225 24.0626 4.54114 23.4783 5.26967 23.4783H14.4916C15.2201 23.4783 15.809 24.0626 15.809 24.7826C15.809 25.5026 15.2201 26.087 14.4916 26.087ZM5.26967 20.8696C4.54114 20.8696 3.95225 20.2852 3.95225 19.5652C3.95225 18.8452 4.54114 18.2609 5.26967 18.2609H17.1264C17.855 18.2609 18.4438 18.8452 18.4438 19.5652C18.4438 20.2852 17.855 20.8696 17.1264 20.8696H5.26967ZM33.7312 18.8283L26.6988 33.0965C26.2337 34.037 25.4288 34.7413 24.4315 35.0804L21.9403 35.9283C21.7993 35.9765 21.6531 36 21.5121 36C20.9654 36 20.4542 35.6609 20.2671 35.1196L19.4095 32.653C19.0657 31.6617 19.1329 30.6 19.5966 29.6622L26.629 15.3965C26.9359 14.7704 27.4734 14.3009 28.1387 14.0739C28.8027 13.847 29.5181 13.8887 30.1504 14.1965L32.5191 15.3404C33.1515 15.6457 33.6258 16.1778 33.855 16.8365C34.0842 17.4952 34.0407 18.2022 33.7312 18.8283Z"/>
</symbol><symbol viewBox="0 0 37 33" id="email-design" xmlns="http://www.w3.org/2000/svg">
<path d="M26.1011 0H8.6969C3.47667 0 0 2.76608 0 9.21657V22.1286C0 28.5791 3.47667 31.3452 8.6969 31.3452H18.3752C18.4587 31.0962 18.584 30.8639 18.7511 30.6537C18.8033 30.5596 19.0225 30.0839 18.986 29.0936C18.9024 26.9693 19.6489 25.719 20.2858 25.0385C20.9958 24.2917 21.8936 23.8049 22.8594 23.6389L22.9168 23.4397C23.1778 22.5269 23.6842 21.7248 24.3785 21.1218L25.2189 20.3971L26.8581 18.9753L32.6264 13.9853C33.2372 13.4597 33.9993 13.1665 34.7824 13.1665H34.798V9.21657C34.798 2.76608 31.3214 0 26.1011 0ZM26.9155 11.2303L21.4708 15.8386C20.3223 16.8177 18.8607 17.2935 17.399 17.2935C15.9374 17.2935 14.46 16.8177 13.3272 15.8386L7.88254 11.2303C7.32398 10.749 7.23524 9.86383 7.67373 9.27189C8.12267 8.68548 8.94225 8.57484 9.50081 9.0506L14.9455 13.6644C16.2662 14.7874 18.5109 14.7874 19.8369 13.6644L25.2816 9.0506C25.8401 8.57484 26.6754 8.66335 27.1086 9.27189C27.5628 9.86383 27.4741 10.749 26.9155 11.2303Z"/>
<path d="M26.4781 29.2429C26.3685 29.8072 26.1075 30.3327 25.6951 30.7698C25.4602 31.0187 25.1783 31.2124 24.8442 31.3451C24.3953 31.5332 23.8523 31.6107 23.2311 31.583C21.3153 31.5 20.5323 32.2635 20.5166 32.2801C20.4696 32.3354 20.4018 32.3575 20.3391 32.3575C20.2713 32.3575 20.2034 32.3354 20.1564 32.2801C20.1042 32.2247 20.0781 32.1528 20.0781 32.0864C20.0781 32.0145 20.1042 31.9481 20.1512 31.8983H20.1564C20.1564 31.8983 20.3078 31.7213 20.4644 31.3451C20.6524 30.8915 20.8559 30.1391 20.8142 29.0161C20.7672 27.8709 21.0282 26.9969 21.5816 26.4104C21.9835 25.9845 22.4794 25.6968 23.0223 25.5751C23.2207 25.5253 23.4295 25.5032 23.6383 25.5032C24.4161 25.5032 25.147 25.824 25.6951 26.4104C26.4155 27.1739 26.6817 28.2527 26.4781 29.2429Z"/>
<path d="M26.7391 21.5808L30.2523 25.3095L30.0696 25.5418L29.2657 26.5874C28.989 26.947 28.634 27.2236 28.2373 27.3951C28.1485 27.4394 28.0598 27.4726 27.9711 27.5002C27.7884 26.6759 27.3916 25.8959 26.7861 25.2486C26.1962 24.6235 25.4653 24.192 24.6719 23.9984C24.698 23.8988 24.7293 23.8047 24.7711 23.7107C24.9329 23.2902 25.1939 22.9141 25.5332 22.6264L26.5198 21.7744L26.7391 21.5808Z"/>
<path d="M36.0047 17.8357L34.7988 19.4013L31.4109 23.7993L31.2334 24.0317L27.9395 20.5409L28.1587 20.3528L33.7861 15.4845C34.0837 15.2245 34.4439 15.1028 34.7988 15.1028C35.2008 15.1083 35.5975 15.2743 35.9003 15.5951C36.4745 16.2037 36.5215 17.1663 36.0047 17.8357Z"/>
</symbol><symbol viewBox="0 0 36 33" id="email-marketing" xmlns="http://www.w3.org/2000/svg">
<path d="M27 0H9C3.6 0 0 2.91177 0 9.70588V23.2941C0 30.0882 3.6 33 9 33H27C32.4 33 36 30.0882 36 23.2941V9.70588C36 2.91177 32.4 0 27 0ZM27.846 11.8218L22.212 16.6747C21.024 17.7035 19.512 18.2082 18 18.2082C16.488 18.2082 14.958 17.7035 13.788 16.6747L8.154 11.8218C7.578 11.3171 7.488 10.3853 7.938 9.76412C8.406 9.14294 9.252 9.02647 9.828 9.53118L15.462 14.3841C16.83 15.5682 19.152 15.5682 20.52 14.3841L26.154 9.53118C26.73 9.02647 27.594 9.12353 28.044 9.76412C28.512 10.3853 28.422 11.3171 27.846 11.8218Z"/>
</symbol><symbol viewBox="0 0 32 32" id="linkedin" xmlns="http://www.w3.org/2000/svg">
<g clip-path="url(#dclip0_751_3867)">
<path d="M7.44799 10.2952H1.02394C0.738832 10.2952 0.507812 10.5263 0.507812 10.8113V31.449C0.507812 31.7341 0.738832 31.9651 1.02394 31.9651H7.44799C7.7331 31.9651 7.96412 31.7341 7.96412 31.449V10.8113C7.96412 10.5263 7.7331 10.2952 7.44799 10.2952Z"/>
<path d="M4.23907 0.0351562C1.90163 0.0351562 0 1.93472 0 4.26958C0 6.60548 1.90163 8.50576 4.23907 8.50576C6.57466 8.50576 8.47473 6.60537 8.47473 4.26958C8.47484 1.93472 6.57466 0.0351562 4.23907 0.0351562Z"/>
<path d="M23.7877 9.78198C21.2076 9.78198 19.3002 10.8911 18.1434 12.1514V10.811C18.1434 10.526 17.9124 10.2949 17.6273 10.2949H11.4751C11.19 10.2949 10.959 10.526 10.959 10.811V31.4488C10.959 31.7339 11.19 31.9649 11.4751 31.9649H17.8851C18.1702 31.9649 18.4013 31.7339 18.4013 31.4488V21.2379C18.4013 17.7971 19.3359 16.4566 21.7344 16.4566C24.3467 16.4566 24.5542 18.6055 24.5542 21.4149V31.4489C24.5542 31.734 24.7853 31.965 25.0704 31.965H31.4828C31.7679 31.965 31.9989 31.734 31.9989 31.4489V20.1287C31.9989 15.0123 31.0233 9.78198 23.7877 9.78198Z"/>
</g>
<defs>
<clipPath id="dclip0_751_3867">
<rect width="32" height="32"/>
</clipPath>
</defs>
</symbol><symbol viewBox="0 0 159 35" id="logo" xmlns="http://www.w3.org/2000/svg">
<g clip-path="url(#eclip0_602_2027)">
<path d="M80.8191 26.0374C80.8191 25.9428 80.8037 25.8641 80.8037 25.7696C80.8037 25.8483 80.8191 25.9428 80.8191 26.0374Z"/>
<path d="M55.9044 29.2979H57.9078C58.4166 29.2979 58.8618 29.0144 59.0685 28.5576L66.8913 11.4829H64.2519C63.1707 11.4829 62.2008 12.113 61.7556 13.0738L56.9061 23.6589L52.0725 13.0738C51.6273 12.0972 50.6574 11.4829 49.5762 11.4829H46.9209L54.7437 28.5576C54.9504 29.0144 55.4115 29.2979 55.9044 29.2979Z"/>
<path d="M74.9363 15.09C74.9209 14.9797 74.9209 14.8852 74.9209 14.775C74.9209 14.8852 74.9209 14.9955 74.9363 15.09Z"/>
<path d="M8.9835 29.2979H10.9869C11.4957 29.2979 11.9409 29.0144 12.1476 28.5576L19.9704 11.4829H17.331C16.2498 11.4829 15.2799 12.113 14.8347 13.0738L9.9852 23.6589L5.1357 13.0738C4.6905 12.0972 3.7206 11.4829 2.6394 11.4829H0L7.8228 28.5576C8.0295 29.0144 8.4906 29.2979 8.9835 29.2979Z"/>
<path d="M42.2149 29.2979H44.4091C44.9179 29.2979 45.3154 28.8884 45.3154 28.4001V0H44.0434C42.5329 0 41.3086 1.21287 41.3086 2.70927V28.4001C41.3086 28.9041 41.7061 29.2979 42.2149 29.2979Z"/>
<path d="M112.874 11.4829H111.602V12.9793C109.996 11.9082 108.009 11.3411 105.894 11.5144C101.506 11.8609 97.9919 15.3735 97.658 19.721C97.2605 24.9347 101.442 29.3137 106.626 29.3137C108.47 29.3137 110.171 28.7624 111.602 27.8173V28.4001C111.602 28.9041 112.016 29.2979 112.509 29.2979H114.703C115.212 29.2979 115.609 28.8884 115.609 28.4001V14.2079C115.609 12.6958 114.385 11.4829 112.874 11.4829ZM111.586 20.7921C111.539 21.4221 111.364 22.0365 111.078 22.572C110.314 24.0842 108.788 25.1553 107.023 25.297C103.954 25.5333 101.41 23.0131 101.665 19.9887C101.856 17.5945 103.811 15.6728 106.212 15.4838C108.327 15.3105 110.203 16.4761 111.078 18.2088C111.459 18.9806 111.65 19.8627 111.586 20.7921Z"/>
<path d="M29.1129 29.2979C31.7046 29.2979 34.1691 28.1953 35.8863 26.2579L34.662 25.2025C33.7716 24.4307 32.4678 24.2259 31.4184 24.7772C30.7188 25.1395 29.9397 25.3285 29.1288 25.3285C27.0936 25.3285 25.3446 24.1157 24.5814 22.383H38.1282V20.3983C38.1282 19.9257 38.0964 19.4532 38.0169 18.9806C37.2855 14.5387 33.39 11.3411 28.8108 11.4987C24.2793 11.6562 20.5269 15.2003 20.1612 19.6737C19.7319 24.9032 23.9136 29.2979 29.1129 29.2979ZM29.1129 15.468C31.1322 15.468 32.8971 16.6494 33.6762 18.4136H24.5655C25.3446 16.6809 27.0936 15.468 29.1129 15.468Z"/>
<path d="M74.9367 15.09C75.2865 19.7997 83.2206 20.6818 83.2206 26.7147C83.2206 29.0774 81.1536 31.0149 78.7686 31.0149H0V32.275C0 33.7714 1.2243 34.9842 2.7348 34.9842H78.6255C82.9503 34.9842 86.6709 31.8182 87.1638 27.5653C88.1496 19.2642 75.4296 20.351 74.9367 15.09Z"/>
<path d="M128.027 10.5536C129.569 10.5536 130.825 9.30918 130.825 7.78128C130.825 6.25338 129.569 5.009 128.027 5.009C127.263 5.009 126.58 5.30828 126.087 5.79658H94.43V0H93.158C91.6475 0 90.4232 1.21287 90.4232 2.70927V5.78083H76.8764C72.2495 5.78083 68.4971 9.4982 68.4971 14.0819C68.4971 21.4694 80.3585 21.1229 80.8037 25.7538C80.5175 20.9968 72.5198 20.1305 72.5198 14.0819C72.5198 11.7034 74.4755 9.76598 76.8764 9.76598H90.4232V28.4001C90.4232 28.9041 90.8366 29.2979 91.3295 29.2979H93.5237C94.0325 29.2979 94.43 28.8884 94.43 28.4001V9.76598H126.087C126.596 10.2543 127.279 10.5536 128.027 10.5536Z"/>
<path d="M128.058 12.4595C128.17 12.4122 128.281 12.365 128.376 12.3335C128.488 12.2862 128.599 12.2547 128.71 12.2232C128.758 12.2075 128.822 12.1917 128.869 12.176C129.14 12.0972 129.426 12.05 129.712 12.0185C129.776 12.0185 129.823 12.0027 129.887 12.0027C130.141 11.9869 130.396 11.9869 130.65 12.0027C130.857 12.0185 131.063 12.05 131.27 12.0972C131.477 12.1445 131.684 12.2075 131.89 12.2862C130.761 11.7979 129.442 11.4829 127.852 11.4829C125.912 11.4829 124.131 12.0972 122.652 13.1211C122.239 12.1602 121.269 11.4829 120.14 11.4829H118.868V20.3825C118.868 20.3825 118.868 20.3825 118.868 20.3983V28.4001C118.868 28.9041 119.282 29.2979 119.774 29.2979H121.953C122.462 29.2979 122.859 28.8884 122.859 28.4001V20.3983C122.859 20.351 122.859 20.3038 122.859 20.2565C122.923 16.9014 125.26 13.6251 128.058 12.4595Z"/>
<path d="M159 9.71872L152.386 12.554L153.578 13.4361C153.228 13.8299 152.688 14.4127 151.988 15.0585V0H148.729C147.568 0 146.63 0.929343 146.63 2.07921V18.5711C146.153 18.7601 145.66 18.9176 145.167 19.0279V4.77273H141.908C140.747 4.77273 139.809 5.70207 139.809 6.85194V18.4136C139.3 18.1301 138.823 17.7678 138.346 17.374V9.34068H135.087C133.926 9.34068 132.988 10.27 132.988 11.4199V13.3101C132.892 13.2628 132.813 13.2156 132.717 13.1841C132.511 13.1053 132.304 13.0423 132.097 12.995C131.891 12.9478 131.684 12.9163 131.477 12.9005C131.223 12.8848 130.968 12.869 130.714 12.9005C130.666 12.9005 130.603 12.9163 130.539 12.9163C130.253 12.9478 129.983 12.995 129.696 13.0738C129.649 13.0896 129.585 13.1053 129.537 13.1211C129.426 13.1526 129.315 13.1841 129.204 13.2313C129.092 13.2628 128.981 13.3101 128.886 13.3573C126.135 14.523 123.829 17.7205 123.702 21.0126C123.845 18.4293 126.024 16.3659 128.663 16.3659C128.838 16.3659 128.997 16.3659 129.156 16.3816C131.366 16.5392 132.717 17.752 134.371 19.2484C136.359 21.0441 138.839 23.2808 143.116 23.2808C149.858 23.2808 155.232 17.6418 156.758 15.8618L158.062 16.8227L159 9.71872Z"/>
</g>
<defs>
<clipPath id="eclip0_602_2027">
<rect width="159" height="35"/>
</clipPath>
</defs>
</symbol><symbol viewBox="0 0 40 37" id="sms-marketing" xmlns="http://www.w3.org/2000/svg">
<path d="M32.3415 27.0407L33.1073 32.8026C33.3036 34.316 31.556 35.3736 30.1618 34.5895L23.3676 30.8334C22.8964 30.5781 22.7785 30.0311 23.0338 29.5935C24.0156 27.916 24.5458 26.0196 24.5458 24.1233C24.5458 17.4497 18.38 12.0161 10.8003 12.0161C9.24906 12.0161 7.73706 12.2349 6.32324 12.6725C5.59669 12.8913 4.88978 12.2713 5.06651 11.5785C6.85342 4.94136 13.7262 0 21.9342 0C31.5167 0 39.2731 6.72827 39.2731 15.0247C39.2731 19.9478 36.5437 24.3057 32.3415 27.0407Z"/>
<path d="M21.6 24.1236C21.6 26.2935 20.736 28.2992 19.2829 29.8855C17.3389 32.0736 14.256 33.4776 10.8 33.4776L5.67492 36.3038C4.81092 36.7961 3.71128 36.1215 3.8291 35.1916L4.32001 31.5995C1.68873 29.9038 0 27.1869 0 24.1236C0 20.9145 1.84582 18.0882 4.67346 16.4107C6.4211 15.3532 8.5222 14.7515 10.8 14.7515C16.7695 14.7515 21.6 18.9452 21.6 24.1236Z"/>
</symbol></svg>