<svg width="42" height="29" viewBox="0 0 42 29" fill="none" xmlns="http://www.w3.org/2000/svg">
<path d="M3.4378 26.9717C3.70773 26.9717 3.97765 26.8706 4.18378 26.6686L16.0982 14.9833L21.6824 20.4601C22.0946 20.8644 22.7622 20.8644 23.1743 20.4601L38.2538 5.67064V9.38116C38.2538 9.95311 38.7257 10.4159 39.3088 10.4159C39.892 10.4159 40.3639 9.95311 40.3639 9.38116V3.17271C40.3639 2.60076 39.892 2.13794 39.3088 2.13794H32.9786C32.3955 2.13794 31.9236 2.60076 31.9236 3.17271C31.9236 3.74467 32.3955 4.20749 32.9786 4.20749H36.7619L22.4284 18.2653L16.8442 12.7885C16.432 12.3843 15.7644 12.3843 15.3523 12.7885L2.69193 25.2054C2.27977 25.6097 2.27977 26.2644 2.69193 26.6686C2.89796 26.8706 3.16788 26.9717 3.4378 26.9717Z" fill="white" stroke="white" stroke-width="3"/>
</svg>
