<svg width="269" height="269" viewBox="0 0 269 269" fill="none" xmlns="http://www.w3.org/2000/svg">
<path d="M225.652 182.809L225.49 182.971L225.327 183.134L179.767 228.694L179.604 228.856L179.442 229.019L139.461 269C141.087 268.935 142.698 268.853 144.308 268.74L181.735 231.312L181.898 231.15L182.06 230.987L227.62 185.427L227.783 185.265L227.946 185.102L268.723 144.324C268.837 142.714 268.935 141.104 268.984 139.477L225.652 182.809Z" fill="url(#paint0_linear_683_2492)"/>
<path d="M21.4869 70.3975L67.0468 24.8376L67.2094 24.675L80.5798 11.3047C77.5706 12.6222 74.6103 14.0536 71.715 15.5825L65.0624 22.2189L64.8997 22.3815L19.0308 68.2667L18.8682 68.4294L15.5825 71.715C14.0536 74.6103 12.6222 77.5706 11.3047 80.5798L21.3243 70.5602L21.4869 70.3975Z" fill="url(#paint1_linear_683_2492)"/>
<path d="M248.278 206.069L205.369 248.977C211.615 245.106 217.52 240.714 223.034 235.9L235.9 223.034C240.552 217.715 244.781 212.038 248.554 206.036C248.603 205.971 248.636 205.906 248.684 205.841C248.782 205.678 248.896 205.532 248.993 205.369L248.44 205.922L248.278 206.069Z" fill="url(#paint2_linear_683_2492)"/>
<path d="M232.988 190.779L187.428 236.339L187.266 236.501L156.442 267.325C158.329 267.016 160.2 266.69 162.054 266.3L189.413 238.941L189.575 238.779L235.461 192.893L235.623 192.731L266.333 162.021C266.723 160.167 267.048 158.296 267.357 156.41L233.183 190.584L232.988 190.779Z" fill="url(#paint3_linear_683_2492)"/>
<path d="M240.633 198.424L195.073 243.984L194.911 244.146L176.693 262.364C179.117 261.567 181.524 260.688 183.883 259.761L197.042 246.602L197.204 246.44L243.089 200.554L243.252 200.392L259.762 183.882C260.689 181.524 261.567 179.116 262.364 176.693L240.796 198.261L240.633 198.424Z" fill="url(#paint4_linear_683_2492)"/>
<path d="M174.416 223.343L219.976 177.783L220.139 177.62L265.861 131.898L266.024 131.735L266.186 131.572L268.984 128.775C268.919 127.327 268.821 125.896 268.708 124.464L263.893 129.279L263.73 129.442L263.568 129.604L218.008 175.164L217.845 175.327L171.96 221.212L171.797 221.375L126.237 266.918L126.075 267.081L125.912 267.244L124.448 268.707C125.603 268.789 126.774 268.903 127.945 268.951C128.059 268.951 128.157 268.951 128.271 268.968C128.433 268.968 128.612 268.968 128.775 268.984L174.253 223.505L174.416 223.343Z" fill="url(#paint5_linear_683_2492)"/>
<path d="M166.771 215.682L212.331 170.122L212.493 169.959L258.379 124.074L258.541 123.911L267.666 114.786C267.471 113.469 267.227 112.167 266.999 110.866L256.085 121.78L255.923 121.943L210.363 167.503L210.2 167.666L164.315 213.551L164.152 213.713L118.592 259.273L118.43 259.436L110.866 266.999C112.167 267.227 113.469 267.471 114.786 267.666L120.56 261.892L120.723 261.729L166.608 215.844L166.771 215.682Z" fill="url(#paint6_linear_683_2492)"/>
<path d="M44.096 93.6572L44.2586 93.4945L90.1438 47.6093L90.3064 47.4467L135.866 1.88681L136.029 1.72415L137.688 0.0650623C136.663 0.0487967 135.639 0 134.614 0C134.598 0 134.581 0 134.565 0C134.484 0 134.386 0 134.305 0C133.914 0 133.524 0.0325311 133.15 0.0325311L87.8503 45.3159L87.6877 45.4785L42.1278 91.0384L41.9652 91.201L0.0325311 133.134C0.0325311 133.605 0 134.077 0 134.565C0 135.606 0.0487967 136.647 0.0813278 137.688L44.096 93.6572Z" fill="url(#paint7_linear_683_2492)"/>
<path d="M36.6139 85.8499L36.7765 85.6872L82.3364 40.1274L82.499 39.9647L82.6617 39.8021L121.862 0.602051C120.121 0.764706 118.397 0.976159 116.673 1.20388L80.3682 37.5086L80.2056 37.6713L80.0429 37.8339L34.4831 83.3938L34.3204 83.5565L34.1578 83.7191L1.21999 116.657C0.992272 118.381 0.78082 120.105 0.618164 121.846L36.4512 86.0126L36.6139 85.8499Z" fill="url(#paint8_linear_683_2492)"/>
<path d="M28.9687 78.2051L29.1314 78.0424L74.6912 32.4826L74.8539 32.3199L75.0165 32.1573L103.53 3.62744C101.432 4.11541 99.3661 4.66844 97.3166 5.254L72.7231 29.8638L72.5604 30.0265L72.3978 30.1891L26.8379 75.749L26.6753 75.9116L26.5126 76.0743L5.25351 97.3171C4.66795 99.3666 4.11492 101.432 3.62695 103.531L28.8061 78.3515L28.9687 78.2051Z" fill="url(#paint9_linear_683_2492)"/>
<path d="M6.18068 146.862L51.7405 101.302L51.9032 101.139L97.7884 55.2542L97.951 55.0916L143.511 9.54799L143.674 9.38534L151.904 1.15496C150.538 0.976038 149.188 0.797117 147.805 0.666992L141.526 6.9455L141.364 7.10816L95.4949 52.9608L95.3323 53.1235L49.7724 98.6833L49.6098 98.846L3.74085 144.731L3.57819 144.894L0.650391 147.805C0.780515 149.172 0.975702 150.538 1.13836 151.904L6.01803 147.025L6.18068 146.862Z" fill="url(#paint10_linear_683_2492)"/>
<path d="M13.8417 154.507L59.4016 108.947L59.5643 108.784L105.449 62.8988L105.612 62.7362L151.172 17.1763L151.335 17.0137L151.497 16.851L164.9 3.4482C163.648 3.15542 162.411 2.86264 161.143 2.61865L149.204 14.5576L149.041 14.7202L103.14 60.6217L102.977 60.7843L57.4172 106.344L57.2546 106.507L11.3856 152.376L11.223 152.538L2.63477 161.127C2.89501 162.379 3.1878 163.632 3.46431 164.884L13.6628 154.685L13.8417 154.507Z" fill="url(#paint11_linear_683_2492)"/>
<path d="M90.3064 230.988L135.866 185.428L136.029 185.265L181.914 139.38L182.077 139.217L227.637 93.6573L227.799 93.4946L227.962 93.332L252.165 69.1288C251.612 68.1529 251.059 67.177 250.49 66.2173L225.669 91.0385L225.506 91.2012L179.621 137.086L179.458 137.249L133.898 182.809L133.736 182.972L87.8503 228.857L87.6877 229.019L66.2334 250.474C67.1931 251.043 68.169 251.596 69.1449 252.149L90.1438 231.15L90.3064 230.988Z" fill="url(#paint12_linear_683_2492)"/>
<path d="M75.017 215.682L120.577 170.122L120.739 169.959L166.625 124.074L166.787 123.911L212.347 78.3514L212.51 78.1887L239.869 50.8138C239.185 49.968 238.518 49.1059 237.819 48.2764L210.363 75.7327L210.2 75.8953L164.315 121.78L164.152 121.943L118.592 167.503L118.43 167.666L72.5446 213.551L72.3819 213.713L48.2764 237.819C49.1059 238.518 49.968 239.185 50.8138 239.869L74.8218 215.861L75.017 215.682Z" fill="url(#paint13_linear_683_2492)"/>
<path d="M21.3239 162.314L21.4866 162.151L67.0464 116.592L67.2091 116.429L67.3718 116.266L113.094 70.5437L113.257 70.381L158.817 24.8212L158.979 24.6585L159.142 24.4959L176.839 6.79893C175.684 6.42482 174.529 6.03445 173.358 5.69287L156.832 22.2187L156.67 22.3813L110.785 68.2665L110.622 68.4292L65.062 113.989L64.8994 114.152L64.7367 114.314L19.1931 159.858L19.0305 160.021L18.8678 160.183L5.70898 173.342C6.06683 174.513 6.44094 175.668 6.81504 176.823L21.1613 162.477L21.3239 162.314Z" fill="url(#paint14_linear_683_2492)"/>
<path d="M44.0961 185.411L44.2587 185.248L90.1439 139.363L90.3066 139.201L135.866 93.6407L136.029 93.478L181.914 47.5928L182.077 47.4302L207.825 21.6818C206.898 21.08 205.971 20.4781 205.028 19.8926L179.621 45.2994L179.458 45.4621L133.898 91.0382L133.736 91.2008L87.8505 137.086L87.6878 137.249L42.1279 182.809L41.9653 182.971L19.9092 205.027C20.4947 205.971 21.0966 206.898 21.6984 207.825L44.0961 185.411Z" fill="url(#paint15_linear_683_2492)"/>
<path d="M67.2092 208.199L67.3719 208.037L112.932 162.477L113.094 162.314L158.98 116.429L159.142 116.266L204.702 70.7063L204.865 70.5437L205.027 70.381L232.793 42.6157C232.061 41.8187 231.313 41.0379 230.548 40.2734L202.718 68.1038L202.555 68.2665L202.392 68.4291L156.67 114.152L156.507 114.314L110.947 159.858L110.785 160.021L65.0622 205.743L64.8995 205.906L64.7369 206.068L40.2734 230.532C41.0379 231.296 41.8349 232.028 42.6157 232.776L67.0303 208.362L67.2092 208.199Z" fill="url(#paint16_linear_683_2492)"/>
<path d="M51.903 192.91L52.0656 192.747L97.7881 147.025L97.9508 146.862L143.511 101.302L143.673 101.139L189.396 55.417L189.558 55.2543L189.721 55.0917L216.771 28.042C215.909 27.3751 215.047 26.7082 214.168 26.0576L187.444 52.7819L187.281 52.9446L187.119 53.1073L141.543 98.6834L141.38 98.846L95.4947 144.731L95.332 144.894L49.7722 190.454L49.6095 190.616L49.4469 190.779L26.0732 214.153C26.7239 215.031 27.3908 215.893 28.0576 216.755L51.7566 193.056L51.903 192.91Z" fill="url(#paint17_linear_683_2492)"/>
<path d="M36.6133 177.62L82.4985 131.735L82.6612 131.572L128.221 86.0125L128.384 85.8499L174.269 39.9647L174.432 39.802L198.244 15.9892C197.252 15.4525 196.227 14.9482 195.219 14.4277L172.154 37.4923L171.992 37.655L171.829 37.8176L126.237 83.3938L126.074 83.5564L80.2051 129.442L80.0424 129.604L34.4825 175.164L34.3199 175.327L34.1572 175.489L14.4434 195.187C14.9639 196.195 15.4518 197.22 16.0049 198.229L36.6133 177.62Z" fill="url(#paint18_linear_683_2492)"/>
<path d="M59.5486 200.554L59.7112 200.392L105.271 154.832L105.434 154.669L105.596 154.506L151.156 108.947L151.319 108.784L151.482 108.621L197.041 63.0615L197.204 62.8988L197.367 62.7361L225.1 35.0034C224.303 34.2714 223.457 33.5882 222.643 32.8726L195.073 60.4427L194.911 60.6054L194.748 60.768L149.188 106.344L149.025 106.507L148.863 106.669L103.303 152.213L103.14 152.376L102.978 152.538L57.4178 198.098L57.2551 198.261L57.0925 198.424L32.873 222.643C33.5887 223.456 34.2719 224.302 35.0038 225.099L59.3859 200.717L59.5486 200.554Z" fill="url(#paint19_linear_683_2492)"/>
<path d="M28.9687 169.959L74.8539 124.074L75.0165 123.911L120.576 78.3511L120.739 78.1885L166.624 32.3033L166.787 32.1406L187.932 10.9954C186.859 10.5237 185.769 10.1008 184.679 9.66162L164.493 29.8472L164.331 30.0098L164.168 30.1725L118.592 75.7486L118.429 75.9113L72.5604 121.796L72.3978 121.959L26.8379 167.519L26.6753 167.682L9.67773 184.663C10.1169 185.753 10.5561 186.842 11.0115 187.916L28.806 170.121L28.9687 169.959Z" fill="url(#paint20_linear_683_2492)"/>
<path d="M113.078 254.085L158.963 208.199L159.126 208.037L204.685 162.477L204.848 162.314L250.733 116.429L250.896 116.266L265.145 102.018C264.836 100.798 264.51 99.5941 264.169 98.4067L248.44 114.136L248.277 114.298L202.717 159.858L202.555 160.021L156.67 205.906L156.507 206.069L110.947 251.628L110.784 251.791L110.622 251.954L98.4062 264.169C99.6099 264.511 100.814 264.836 102.017 265.145L113.078 254.085Z" fill="url(#paint21_linear_683_2492)"/>
<path d="M97.7888 238.795L97.9515 238.632L143.511 193.072L143.674 192.91L143.837 192.747L189.397 147.187L189.559 147.024L189.722 146.862L235.282 101.302L235.444 101.139L235.607 100.977L257.273 79.3108C256.801 78.2535 256.346 77.1963 255.841 76.1553L233.314 98.6831L233.151 98.8457L232.988 99.0084L187.428 144.568L187.266 144.731L187.103 144.894L141.543 190.453L141.381 190.616L141.218 190.779L95.658 236.339L95.4954 236.501L95.3327 236.664L76.1719 255.825C77.2129 256.329 78.2701 256.784 79.3274 257.256L97.6262 238.957L97.7888 238.795Z" fill="url(#paint22_linear_683_2492)"/>
<path d="M82.4989 223.489L82.6615 223.326L128.221 177.767L128.384 177.604L174.269 131.719L174.432 131.556L219.992 85.9963L220.154 85.8336L246.358 59.6298C245.74 58.7189 245.106 57.8243 244.471 56.9297L218.024 83.3775L217.861 83.5402L171.976 129.425L171.813 129.588L126.253 175.148L126.091 175.311L80.2054 221.196L56.9619 244.439C57.8565 245.074 58.7511 245.724 59.662 246.326L82.3525 223.636L82.4989 223.489Z" fill="url(#paint23_linear_683_2492)"/>
<path d="M105.433 246.44L151.318 200.555L151.481 200.392L197.041 154.832L197.203 154.669L243.089 108.784L243.251 108.622L261.631 90.2415C261.241 89.1192 260.834 87.9806 260.411 86.8745L240.958 106.328L240.795 106.491L240.632 106.653L195.073 152.213L194.91 152.376L149.025 198.261L148.862 198.424L103.302 243.984L103.14 244.146L86.874 260.412C87.9963 260.835 89.1187 261.241 90.241 261.632L105.27 246.602L105.433 246.44Z" fill="url(#paint24_linear_683_2492)"/>
<defs>
<linearGradient id="paint0_linear_683_2492" x1="200.615" y1="144.774" x2="204.222" y2="269" gradientUnits="userSpaceOnUse">
<stop stop-color="#68ADB7"/>
<stop offset="1" stop-color="#68ADB7" stop-opacity="0"/>
</linearGradient>
<linearGradient id="paint1_linear_683_2492" x1="44.0127" y1="14.1375" x2="45.942" y2="80.5798" gradientUnits="userSpaceOnUse">
<stop stop-color="#68ADB7"/>
<stop offset="1" stop-color="#68ADB7" stop-opacity="0"/>
</linearGradient>
<linearGradient id="paint2_linear_683_2492" x1="225.966" y1="207.152" x2="227.18" y2="248.977" gradientUnits="userSpaceOnUse">
<stop stop-color="#68ADB7"/>
<stop offset="1" stop-color="#68ADB7" stop-opacity="0"/>
</linearGradient>
<linearGradient id="paint3_linear_683_2492" x1="208.811" y1="160.945" x2="211.899" y2="267.325" gradientUnits="userSpaceOnUse">
<stop stop-color="#68ADB7"/>
<stop offset="1" stop-color="#68ADB7" stop-opacity="0"/>
</linearGradient>
<linearGradient id="paint4_linear_683_2492" x1="217.143" y1="180.196" x2="219.528" y2="262.364" gradientUnits="userSpaceOnUse">
<stop stop-color="#68ADB7"/>
<stop offset="1" stop-color="#68ADB7" stop-opacity="0"/>
</linearGradient>
<linearGradient id="paint5_linear_683_2492" x1="192.69" y1="130.374" x2="196.715" y2="268.984" gradientUnits="userSpaceOnUse">
<stop stop-color="#68ADB7"/>
<stop offset="1" stop-color="#68ADB7" stop-opacity="0"/>
</linearGradient>
<linearGradient id="paint6_linear_683_2492" x1="184.899" y1="117.278" x2="189.266" y2="267.666" gradientUnits="userSpaceOnUse">
<stop stop-color="#68ADB7"/>
<stop offset="1" stop-color="#68ADB7" stop-opacity="0"/>
</linearGradient>
<linearGradient id="paint7_linear_683_2492" x1="65.0091" y1="5.63037" x2="68.8436" y2="137.688" gradientUnits="userSpaceOnUse">
<stop stop-color="#68ADB7"/>
<stop offset="1" stop-color="#68ADB7" stop-opacity="0"/>
</linearGradient>
<linearGradient id="paint8_linear_683_2492" x1="57.863" y1="5.55997" x2="61.2395" y2="121.846" gradientUnits="userSpaceOnUse">
<stop stop-color="#68ADB7"/>
<stop offset="1" stop-color="#68ADB7" stop-opacity="0"/>
</linearGradient>
<linearGradient id="paint9_linear_683_2492" x1="50.796" y1="7.7127" x2="53.5782" y2="103.531" gradientUnits="userSpaceOnUse">
<stop stop-color="#68ADB7"/>
<stop offset="1" stop-color="#68ADB7" stop-opacity="0"/>
</linearGradient>
<linearGradient id="paint10_linear_683_2492" x1="72.0644" y1="6.85142" x2="76.2757" y2="151.904" gradientUnits="userSpaceOnUse">
<stop stop-color="#68ADB7"/>
<stop offset="1" stop-color="#68ADB7" stop-opacity="0"/>
</linearGradient>
<linearGradient id="paint11_linear_683_2492" x1="79.2479" y1="9.25404" x2="83.7669" y2="164.884" gradientUnits="userSpaceOnUse">
<stop stop-color="#68ADB7"/>
<stop offset="1" stop-color="#68ADB7" stop-opacity="0"/>
</linearGradient>
<linearGradient id="paint12_linear_683_2492" x1="154.021" y1="73.8204" x2="159.199" y2="252.149" gradientUnits="userSpaceOnUse">
<stop stop-color="#68ADB7"/>
<stop offset="1" stop-color="#68ADB7" stop-opacity="0"/>
</linearGradient>
<linearGradient id="paint13_linear_683_2492" x1="138.736" y1="56.111" x2="144.072" y2="239.869" gradientUnits="userSpaceOnUse">
<stop stop-color="#68ADB7"/>
<stop offset="1" stop-color="#68ADB7" stop-opacity="0"/>
</linearGradient>
<linearGradient id="paint14_linear_683_2492" x1="86.5076" y1="12.6908" x2="91.2734" y2="176.823" gradientUnits="userSpaceOnUse">
<stop stop-color="#68ADB7"/>
<stop offset="1" stop-color="#68ADB7" stop-opacity="0"/>
</linearGradient>
<linearGradient id="paint15_linear_683_2492" x1="108.633" y1="27.5775" x2="113.868" y2="207.825" gradientUnits="userSpaceOnUse">
<stop stop-color="#68ADB7"/>
<stop offset="1" stop-color="#68ADB7" stop-opacity="0"/>
</linearGradient>
<linearGradient id="paint16_linear_683_2492" x1="131.171" y1="48.1453" x2="136.532" y2="232.777" gradientUnits="userSpaceOnUse">
<stop stop-color="#68ADB7"/>
<stop offset="1" stop-color="#68ADB7" stop-opacity="0"/>
</linearGradient>
<linearGradient id="paint17_linear_683_2492" x1="116.111" y1="33.8557" x2="121.421" y2="216.755" gradientUnits="userSpaceOnUse">
<stop stop-color="#68ADB7"/>
<stop offset="1" stop-color="#68ADB7" stop-opacity="0"/>
</linearGradient>
<linearGradient id="paint18_linear_683_2492" x1="101.225" y1="21.9438" x2="106.343" y2="198.229" gradientUnits="userSpaceOnUse">
<stop stop-color="#68ADB7"/>
<stop offset="1" stop-color="#68ADB7" stop-opacity="0"/>
</linearGradient>
<linearGradient id="paint19_linear_683_2492" x1="123.632" y1="40.7331" x2="128.986" y2="225.099" gradientUnits="userSpaceOnUse">
<stop stop-color="#68ADB7"/>
<stop offset="1" stop-color="#68ADB7" stop-opacity="0"/>
</linearGradient>
<linearGradient id="paint20_linear_683_2492" x1="93.8401" y1="16.9508" x2="98.8043" y2="187.916" gradientUnits="userSpaceOnUse">
<stop stop-color="#68ADB7"/>
<stop offset="1" stop-color="#68ADB7" stop-opacity="0"/>
</linearGradient>
<linearGradient id="paint21_linear_683_2492" x1="177.131" y1="105.225" x2="181.775" y2="265.145" gradientUnits="userSpaceOnUse">
<stop stop-color="#68ADB7"/>
<stop offset="1" stop-color="#68ADB7" stop-opacity="0"/>
</linearGradient>
<linearGradient id="paint22_linear_683_2492" x1="161.678" y1="83.5609" x2="166.722" y2="257.256" gradientUnits="userSpaceOnUse">
<stop stop-color="#68ADB7"/>
<stop offset="1" stop-color="#68ADB7" stop-opacity="0"/>
</linearGradient>
<linearGradient id="paint23_linear_683_2492" x1="146.385" y1="64.6745" x2="151.659" y2="246.326" gradientUnits="userSpaceOnUse">
<stop stop-color="#68ADB7"/>
<stop offset="1" stop-color="#68ADB7" stop-opacity="0"/>
</linearGradient>
<linearGradient id="paint24_linear_683_2492" x1="169.385" y1="94.0207" x2="174.252" y2="261.632" gradientUnits="userSpaceOnUse">
<stop stop-color="#68ADB7"/>
<stop offset="1" stop-color="#68ADB7" stop-opacity="0"/>
</linearGradient>
</defs>
</svg>
