<svg width="106" height="200" viewBox="0 0 106 200" fill="none" xmlns="http://www.w3.org/2000/svg">
<path d="M102.389 8.83212C100.488 8.83212 98.9287 7.31206 98.9287 5.42396C98.9287 3.53586 100.472 2.01578 102.389 2.01578C104.29 2.01578 105.85 3.53586 105.85 5.42396C105.834 7.31206 104.29 8.83212 102.389 8.83212Z" fill="white"/>
<path d="M102.389 32.6573C100.488 32.6573 98.9287 31.1373 98.9287 29.2492C98.9287 27.3611 100.472 25.841 102.389 25.841C104.29 25.841 105.85 27.3611 105.85 29.2492C105.834 31.1373 104.29 32.6573 102.389 32.6573Z" fill="white"/>
<path d="M102.389 56.4826C100.488 56.4826 98.9287 54.9625 98.9287 53.0744C98.9287 51.1863 100.472 49.6662 102.389 49.6662C104.29 49.6662 105.85 51.1863 105.85 53.0744C105.834 54.9625 104.29 56.4826 102.389 56.4826Z" fill="white"/>
<path d="M102.389 80.3238C100.488 80.3238 98.9287 78.8037 98.9287 76.9156C98.9287 75.0275 100.472 73.5074 102.389 73.5074C104.29 73.5074 105.85 75.0275 105.85 76.9156C105.834 78.7877 104.29 80.3238 102.389 80.3238Z" fill="white"/>
<path d="M102.389 104.149C100.488 104.149 98.9287 102.629 98.9287 100.741C98.9287 98.8687 100.472 97.3326 102.389 97.3326C104.29 97.3326 105.85 98.8527 105.85 100.741C105.834 102.629 104.29 104.149 102.389 104.149Z" fill="white"/>
<path d="M102.389 127.974C100.488 127.974 98.9287 126.454 98.9287 124.566C98.9287 122.678 100.472 121.158 102.389 121.158C104.29 121.158 105.85 122.678 105.85 124.566C105.834 126.454 104.29 127.974 102.389 127.974Z" fill="white"/>
<path d="M102.389 151.8C100.488 151.8 98.9287 150.279 98.9287 148.391C98.9287 146.503 100.472 144.983 102.389 144.983C104.29 144.983 105.85 146.503 105.85 148.391C105.85 150.279 104.29 151.8 102.389 151.8Z" fill="white"/>
<path d="M102.389 175.625C100.488 175.625 98.9287 174.105 98.9287 172.217C98.9287 170.328 100.472 168.808 102.389 168.808C104.29 168.808 105.85 170.328 105.85 172.217C105.85 174.105 104.29 175.625 102.389 175.625Z" fill="white"/>
<path d="M102.389 199.466C100.488 199.466 98.9287 197.946 98.9287 196.058C98.9287 194.186 100.472 192.65 102.389 192.65C104.29 192.65 105.85 194.17 105.85 196.058C105.834 197.93 104.29 199.466 102.389 199.466Z" fill="white"/>
<path d="M82.7965 8.83212C80.8794 8.83212 79.3359 7.31206 79.3359 5.42396C79.3359 3.53586 80.8794 2.01578 82.7965 2.01578C84.6974 2.01578 86.257 3.53586 86.257 5.42396C86.257 7.31206 84.7136 8.83212 82.7965 8.83212Z" fill="white"/>
<path d="M82.7965 32.6573C80.8794 32.6573 79.3359 31.1373 79.3359 29.2492C79.3359 27.3611 80.8794 25.841 82.7965 25.841C84.6974 25.841 86.257 27.3611 86.257 29.2492C86.257 31.1373 84.7136 32.6573 82.7965 32.6573Z" fill="white"/>
<path d="M82.7965 56.4826C80.8794 56.4826 79.3359 54.9625 79.3359 53.0744C79.3359 51.1863 80.8794 49.6662 82.7965 49.6662C84.6974 49.6662 86.257 51.1863 86.257 53.0744C86.257 54.9625 84.7136 56.4826 82.7965 56.4826Z" fill="white"/>
<path d="M82.7965 80.3238C80.8794 80.3238 79.3359 78.8037 79.3359 76.9156C79.3359 75.0275 80.8794 73.5074 82.7965 73.5074C84.6974 73.5074 86.257 75.0275 86.257 76.9156C86.257 78.7877 84.7136 80.3238 82.7965 80.3238Z" fill="white"/>
<path d="M82.7965 104.149C80.8794 104.149 79.3359 102.629 79.3359 100.741C79.3359 98.8687 80.8794 97.3326 82.7965 97.3326C84.6974 97.3326 86.257 98.8527 86.257 100.741C86.257 102.629 84.7136 104.149 82.7965 104.149Z" fill="white"/>
<path d="M82.7965 127.974C80.8794 127.974 79.3359 126.454 79.3359 124.566C79.3359 122.678 80.8794 121.158 82.7965 121.158C84.6974 121.158 86.257 122.678 86.257 124.566C86.257 126.454 84.7136 127.974 82.7965 127.974Z" fill="white"/>
<path d="M82.7965 151.8C80.8794 151.8 79.3359 150.279 79.3359 148.391C79.3359 146.503 80.8794 144.983 82.7965 144.983C84.6974 144.983 86.257 146.503 86.257 148.391C86.257 150.279 84.7136 151.8 82.7965 151.8Z" fill="white"/>
<path d="M82.7965 175.625C80.8794 175.625 79.3359 174.105 79.3359 172.217C79.3359 170.328 80.8794 168.808 82.7965 168.808C84.6974 168.808 86.257 170.328 86.257 172.217C86.257 174.105 84.7136 175.625 82.7965 175.625Z" fill="white"/>
<path d="M82.7965 199.466C80.8794 199.466 79.3359 197.946 79.3359 196.058C79.3359 194.186 80.8794 192.65 82.7965 192.65C84.6974 192.65 86.257 194.17 86.257 196.058C86.257 197.93 84.7136 199.466 82.7965 199.466Z" fill="white"/>
<path d="M63.2193 8.83212C65.1305 8.83212 66.6799 7.30624 66.6799 5.42396C66.6799 3.54168 65.1305 2.01578 63.2193 2.01578C61.3081 2.01578 59.7588 3.54168 59.7588 5.42396C59.7588 7.30624 61.3081 8.83212 63.2193 8.83212Z" fill="white"/>
<path d="M63.2193 32.6734C65.1305 32.6734 66.6799 31.1475 66.6799 29.2652C66.6799 27.3829 65.1305 25.857 63.2193 25.857C61.3081 25.857 59.7588 27.3829 59.7588 29.2652C59.7588 31.1475 61.3081 32.6734 63.2193 32.6734Z" fill="white"/>
<path d="M63.2193 56.4986C65.1305 56.4986 66.6799 54.9727 66.6799 53.0904C66.6799 51.2081 65.1305 49.6822 63.2193 49.6822C61.3081 49.6822 59.7588 51.2081 59.7588 53.0904C59.7588 54.9727 61.3081 56.4986 63.2193 56.4986Z" fill="white"/>
<path d="M63.2193 80.3238C65.1305 80.3238 66.6799 78.7979 66.6799 76.9156C66.6799 75.0333 65.1305 73.5074 63.2193 73.5074C61.3081 73.5074 59.7588 75.0333 59.7588 76.9156C59.7588 78.7979 61.3081 80.3238 63.2193 80.3238Z" fill="white"/>
<path d="M63.2193 104.149C61.3185 104.149 59.7588 102.629 59.7588 100.741C59.7588 98.8687 61.3022 97.3326 63.2193 97.3326C65.1364 97.3326 66.6799 98.8527 66.6799 100.741C66.6636 102.629 65.1202 104.149 63.2193 104.149Z" fill="white"/>
<path d="M63.2193 127.974C61.3185 127.974 59.7588 126.454 59.7588 124.566C59.7588 122.678 61.3022 121.158 63.2193 121.158C65.1364 121.158 66.6799 122.678 66.6799 124.566C66.6636 126.454 65.1202 127.974 63.2193 127.974Z" fill="white"/>
<path d="M63.2193 151.815C65.1305 151.815 66.6799 150.29 66.6799 148.407C66.6799 146.525 65.1305 144.999 63.2193 144.999C61.3081 144.999 59.7588 146.525 59.7588 148.407C59.7588 150.29 61.3081 151.815 63.2193 151.815Z" fill="white"/>
<path d="M63.2193 175.641C65.1305 175.641 66.6799 174.115 66.6799 172.233C66.6799 170.35 65.1305 168.824 63.2193 168.824C61.3081 168.824 59.7588 170.35 59.7588 172.233C59.7588 174.115 61.3081 175.641 63.2193 175.641Z" fill="white"/>
<path d="M63.2193 199.466C61.3185 199.466 59.7588 197.946 59.7588 196.058C59.7588 194.186 61.3022 192.65 63.2193 192.65C65.1364 192.65 66.6799 194.17 66.6799 196.058C66.6636 197.93 65.1202 199.466 63.2193 199.466Z" fill="white"/>
<path d="M43.6256 8.83212C41.7085 8.83212 40.165 7.31206 40.165 5.42396C40.165 3.53586 41.7085 2.01578 43.6256 2.01578C45.5265 2.01578 47.0861 3.53586 47.0861 5.42396C47.0861 7.31206 45.5427 8.83212 43.6256 8.83212Z" fill="white"/>
<path d="M43.6256 32.6573C41.7085 32.6573 40.165 31.1373 40.165 29.2492C40.165 27.3611 41.7085 25.841 43.6256 25.841C45.5265 25.841 47.0861 27.3611 47.0861 29.2492C47.0861 31.1373 45.5427 32.6573 43.6256 32.6573Z" fill="white"/>
<path d="M43.6256 56.4826C41.7085 56.4826 40.165 54.9625 40.165 53.0744C40.165 51.1863 41.7085 49.6662 43.6256 49.6662C45.5265 49.6662 47.0861 51.1863 47.0861 53.0744C47.0861 54.9625 45.5427 56.4826 43.6256 56.4826Z" fill="white"/>
<path d="M43.6256 80.3238C41.7085 80.3238 40.165 78.8037 40.165 76.9156C40.165 75.0275 41.7085 73.5074 43.6256 73.5074C45.5265 73.5074 47.0861 75.0275 47.0861 76.9156C47.0861 78.7877 45.5427 80.3238 43.6256 80.3238Z" fill="white"/>
<path d="M43.6256 104.149C41.7085 104.149 40.165 102.629 40.165 100.741C40.165 98.8687 41.7085 97.3326 43.6256 97.3326C45.5265 97.3326 47.0861 98.8527 47.0861 100.741C47.0861 102.629 45.5427 104.149 43.6256 104.149Z" fill="white"/>
<path d="M43.6256 127.974C41.7085 127.974 40.165 126.454 40.165 124.566C40.165 122.678 41.7085 121.158 43.6256 121.158C45.5265 121.158 47.0861 122.678 47.0861 124.566C47.0861 126.454 45.5427 127.974 43.6256 127.974Z" fill="white"/>
<path d="M43.6256 151.8C41.7085 151.8 40.165 150.279 40.165 148.391C40.165 146.503 41.7085 144.983 43.6256 144.983C45.5265 144.983 47.0861 146.503 47.0861 148.391C47.0861 150.279 45.5427 151.8 43.6256 151.8Z" fill="white"/>
<path d="M43.6256 175.625C41.7085 175.625 40.165 174.105 40.165 172.217C40.165 170.328 41.7085 168.808 43.6256 168.808C45.5265 168.808 47.0861 170.328 47.0861 172.217C47.0861 174.105 45.5427 175.625 43.6256 175.625Z" fill="white"/>
<path d="M43.6256 199.466C41.7085 199.466 40.165 197.946 40.165 196.058C40.165 194.186 41.7085 192.65 43.6256 192.65C45.5265 192.65 47.0861 194.17 47.0861 196.058C47.0861 197.93 45.5427 199.466 43.6256 199.466Z" fill="white"/>
<path d="M25.3749 8.5727C27.1389 7.84839 27.9728 5.85285 27.2374 4.1155C26.5019 2.37815 24.4757 1.55691 22.7117 2.28121C20.9476 3.00552 20.1138 5.00109 20.8492 6.73844C21.5846 8.47578 23.6109 9.297 25.3749 8.5727Z" fill="white"/>
<path d="M25.3798 32.4131C27.1438 31.6888 27.9777 29.6933 27.2423 27.9559C26.5068 26.2186 24.4806 25.3973 22.7166 26.1216C20.9525 26.8459 20.1186 28.8415 20.8541 30.5789C21.5895 32.3162 23.6157 33.1374 25.3798 32.4131Z" fill="white"/>
<path d="M25.3788 56.2388C27.1429 55.5145 27.9767 53.5189 27.2413 51.7816C26.5059 50.0442 24.4796 49.223 22.7156 49.9473C20.9515 50.6716 20.1177 52.6672 20.8531 54.4045C21.5885 56.1419 23.6148 56.9631 25.3788 56.2388Z" fill="white"/>
<path d="M25.3769 80.0643C27.1409 79.34 27.9748 77.3444 27.2393 75.6071C26.5039 73.8697 24.4777 73.0485 22.7136 73.7728C20.9496 74.4971 20.1157 76.4927 20.8512 78.23C21.5866 79.9674 23.6128 80.7886 25.3769 80.0643Z" fill="white"/>
<path d="M24.0484 104.149C22.1476 104.149 20.5879 102.629 20.5879 100.741C20.5879 98.8687 22.1313 97.3326 24.0484 97.3326C25.9656 97.3326 27.509 98.8527 27.509 100.741C27.4927 102.629 25.9493 104.149 24.0484 104.149Z" fill="white"/>
<path d="M24.0484 127.974C22.1476 127.974 20.5879 126.454 20.5879 124.566C20.5879 122.678 22.1313 121.158 24.0484 121.158C25.9656 121.158 27.509 122.678 27.509 124.566C27.4927 126.454 25.9493 127.974 24.0484 127.974Z" fill="white"/>
<path d="M27.2981 149.574C27.9689 147.812 27.062 145.847 25.2723 145.187C23.4827 144.526 21.488 145.419 20.8172 147.182C20.1464 148.944 21.0533 150.909 22.843 151.57C24.6327 152.23 26.6273 151.337 27.2981 149.574Z" fill="white"/>
<path d="M27.4156 172.983C27.8544 171.151 26.7022 169.316 24.842 168.884C22.9818 168.451 21.1181 169.586 20.6793 171.418C20.2405 173.25 21.3927 175.086 23.2529 175.518C25.1131 175.95 26.9768 174.815 27.4156 172.983Z" fill="white"/>
<path d="M24.0484 199.466C22.1476 199.466 20.5879 197.946 20.5879 196.058C20.5879 194.186 22.1313 192.65 24.0484 192.65C25.9656 192.65 27.509 194.17 27.509 196.058C27.4927 197.93 25.9493 199.466 24.0484 199.466Z" fill="white"/>
<path d="M4.45469 8.83212C6.3659 8.83212 7.91522 7.30624 7.91522 5.42396C7.91522 3.54168 6.3659 2.01578 4.45469 2.01578C2.54349 2.01578 0.994141 3.54168 0.994141 5.42396C0.994141 7.30624 2.54349 8.83212 4.45469 8.83212Z" fill="white"/>
<path d="M4.45469 32.6734C6.3659 32.6734 7.91522 31.1475 7.91522 29.2652C7.91522 27.3829 6.3659 25.857 4.45469 25.857C2.54349 25.857 0.994141 27.3829 0.994141 29.2652C0.994141 31.1475 2.54349 32.6734 4.45469 32.6734Z" fill="white"/>
<path d="M4.45469 56.4986C6.3659 56.4986 7.91522 54.9727 7.91522 53.0904C7.91522 51.2081 6.3659 49.6822 4.45469 49.6822C2.54349 49.6822 0.994141 51.2081 0.994141 53.0904C0.994141 54.9727 2.54349 56.4986 4.45469 56.4986Z" fill="white"/>
<path d="M4.45469 80.3238C6.3659 80.3238 7.91522 78.7979 7.91522 76.9156C7.91522 75.0333 6.3659 73.5074 4.45469 73.5074C2.54349 73.5074 0.994141 75.0333 0.994141 76.9156C0.994141 78.7979 2.54349 80.3238 4.45469 80.3238Z" fill="white"/>
<path d="M4.45469 104.149C2.53758 104.149 0.994141 102.629 0.994141 100.741C0.994141 98.8687 2.53758 97.3326 4.45469 97.3326C6.35556 97.3326 7.91522 98.8527 7.91522 100.741C7.91522 102.629 6.3718 104.149 4.45469 104.149Z" fill="white"/>
<path d="M4.45469 127.974C2.53758 127.974 0.994141 126.454 0.994141 124.566C0.994141 122.678 2.53758 121.158 4.45469 121.158C6.35556 121.158 7.91522 122.678 7.91522 124.566C7.91522 126.454 6.3718 127.974 4.45469 127.974Z" fill="white"/>
<path d="M4.45469 151.815C6.3659 151.815 7.91522 150.29 7.91522 148.407C7.91522 146.525 6.3659 144.999 4.45469 144.999C2.54349 144.999 0.994141 146.525 0.994141 148.407C0.994141 150.29 2.54349 151.815 4.45469 151.815Z" fill="white"/>
<path d="M4.45469 175.641C6.3659 175.641 7.91522 174.115 7.91522 172.233C7.91522 170.35 6.3659 168.824 4.45469 168.824C2.54349 168.824 0.994141 170.35 0.994141 172.233C0.994141 174.115 2.54349 175.641 4.45469 175.641Z" fill="white"/>
<path d="M4.45469 199.466C2.53758 199.466 0.994141 197.946 0.994141 196.058C0.994141 194.186 2.53758 192.65 4.45469 192.65C6.35556 192.65 7.91522 194.17 7.91522 196.058C7.91522 197.93 6.3718 199.466 4.45469 199.466Z" fill="white"/>
</svg>
