<svg width="85" height="165" viewBox="0 0 85 165" fill="none" xmlns="http://www.w3.org/2000/svg">
<path d="M81.2334 6.51454C79.7105 6.51454 78.4609 5.25507 78.4609 3.69066C78.4609 2.12625 79.6975 0.86676 81.2334 0.86676C82.7562 0.86676 84.0058 2.12625 84.0058 3.69066C83.9928 5.25507 82.7562 6.51454 81.2334 6.51454Z" fill="#D9CFDD"/>
<path d="M81.2334 26.2553C79.7105 26.2553 78.4609 24.9958 78.4609 23.4314C78.4609 21.867 79.6975 20.6075 81.2334 20.6075C82.7562 20.6075 84.0058 21.867 84.0058 23.4314C83.9928 24.9958 82.7562 26.2553 81.2334 26.2553Z" fill="#D9CFDD"/>
<path d="M81.2334 45.9959C79.7105 45.9959 78.4609 44.7365 78.4609 43.172C78.4609 41.6076 79.6975 40.3481 81.2334 40.3481C82.7562 40.3481 84.0058 41.6076 84.0058 43.172C83.9928 44.7365 82.7562 45.9959 81.2334 45.9959Z" fill="#D9CFDD"/>
<path d="M81.2334 65.75C79.7105 65.75 78.4609 64.4905 78.4609 62.9261C78.4609 61.3617 79.6975 60.1022 81.2334 60.1022C82.7562 60.1022 84.0058 61.3617 84.0058 62.9261C83.9928 64.4773 82.7562 65.75 81.2334 65.75Z" fill="#D9CFDD"/>
<path d="M81.2334 85.4908C79.7105 85.4908 78.4609 84.2313 78.4609 82.6669C78.4609 81.1157 79.6975 79.843 81.2334 79.843C82.7562 79.843 84.0058 81.1024 84.0058 82.6669C83.9928 84.2313 82.7562 85.4908 81.2334 85.4908Z" fill="#D9CFDD"/>
<path d="M81.2334 105.232C79.7105 105.232 78.4609 103.972 78.4609 102.408C78.4609 100.843 79.6975 99.5837 81.2334 99.5837C82.7562 99.5837 84.0058 100.843 84.0058 102.408C83.9928 103.972 82.7562 105.232 81.2334 105.232Z" fill="#D9CFDD"/>
<path d="M81.2334 124.972C79.7105 124.972 78.4609 123.713 78.4609 122.148C78.4609 120.584 79.6975 119.324 81.2334 119.324C82.7562 119.324 84.0058 120.584 84.0058 122.148C84.0058 123.713 82.7562 124.972 81.2334 124.972Z" fill="#D9CFDD"/>
<path d="M81.2334 144.713C79.7105 144.713 78.4609 143.453 78.4609 141.889C78.4609 140.325 79.6975 139.065 81.2334 139.065C82.7562 139.065 84.0058 140.325 84.0058 141.889C84.0058 143.453 82.7562 144.713 81.2334 144.713Z" fill="#D9CFDD"/>
<path d="M81.2334 164.467C79.7105 164.467 78.4609 163.208 78.4609 161.643C78.4609 160.092 79.6975 158.819 81.2334 158.819C82.7562 158.819 84.0058 160.079 84.0058 161.643C83.9928 163.194 82.7562 164.467 81.2334 164.467Z" fill="#D9CFDD"/>
<path d="M65.5361 6.51454C64.0002 6.51454 62.7637 5.25507 62.7637 3.69066C62.7637 2.12625 64.0002 0.86676 65.5361 0.86676C67.059 0.86676 68.3085 2.12625 68.3085 3.69066C68.3085 5.25507 67.072 6.51454 65.5361 6.51454Z" fill="#D9CFDD"/>
<path d="M65.5361 26.2553C64.0002 26.2553 62.7637 24.9958 62.7637 23.4314C62.7637 21.867 64.0002 20.6075 65.5361 20.6075C67.059 20.6075 68.3085 21.867 68.3085 23.4314C68.3085 24.9958 67.072 26.2553 65.5361 26.2553Z" fill="#D9CFDD"/>
<path d="M65.5361 45.9959C64.0002 45.9959 62.7637 44.7365 62.7637 43.172C62.7637 41.6076 64.0002 40.3481 65.5361 40.3481C67.059 40.3481 68.3085 41.6076 68.3085 43.172C68.3085 44.7365 67.072 45.9959 65.5361 45.9959Z" fill="#D9CFDD"/>
<path d="M65.5361 65.75C64.0002 65.75 62.7637 64.4905 62.7637 62.9261C62.7637 61.3617 64.0002 60.1022 65.5361 60.1022C67.059 60.1022 68.3085 61.3617 68.3085 62.9261C68.3085 64.4773 67.072 65.75 65.5361 65.75Z" fill="#D9CFDD"/>
<path d="M65.5361 85.4908C64.0002 85.4908 62.7637 84.2313 62.7637 82.6669C62.7637 81.1157 64.0002 79.843 65.5361 79.843C67.059 79.843 68.3085 81.1024 68.3085 82.6669C68.3085 84.2313 67.072 85.4908 65.5361 85.4908Z" fill="#D9CFDD"/>
<path d="M65.5361 105.232C64.0002 105.232 62.7637 103.972 62.7637 102.408C62.7637 100.843 64.0002 99.5837 65.5361 99.5837C67.059 99.5837 68.3085 100.843 68.3085 102.408C68.3085 103.972 67.072 105.232 65.5361 105.232Z" fill="#D9CFDD"/>
<path d="M65.5361 124.972C64.0002 124.972 62.7637 123.713 62.7637 122.148C62.7637 120.584 64.0002 119.324 65.5361 119.324C67.059 119.324 68.3085 120.584 68.3085 122.148C68.3085 123.713 67.072 124.972 65.5361 124.972Z" fill="#D9CFDD"/>
<path d="M65.5361 144.713C64.0002 144.713 62.7637 143.453 62.7637 141.889C62.7637 140.325 64.0002 139.065 65.5361 139.065C67.059 139.065 68.3085 140.325 68.3085 141.889C68.3085 143.453 67.072 144.713 65.5361 144.713Z" fill="#D9CFDD"/>
<path d="M65.5361 164.467C64.0002 164.467 62.7637 163.208 62.7637 161.643C62.7637 160.092 64.0002 158.819 65.5361 158.819C67.059 158.819 68.3085 160.079 68.3085 161.643C68.3085 163.194 67.072 164.467 65.5361 164.467Z" fill="#D9CFDD"/>
<path d="M49.8515 6.51454C51.3827 6.51454 52.624 5.25025 52.624 3.69066C52.624 2.13107 51.3827 0.86676 49.8515 0.86676C48.3204 0.86676 47.0791 2.13107 47.0791 3.69066C47.0791 5.25025 48.3204 6.51454 49.8515 6.51454Z" fill="#D9CFDD"/>
<path d="M49.8515 26.2685C51.3827 26.2685 52.624 25.0042 52.624 23.4446C52.624 21.885 51.3827 20.6207 49.8515 20.6207C48.3204 20.6207 47.0791 21.885 47.0791 23.4446C47.0791 25.0042 48.3204 26.2685 49.8515 26.2685Z" fill="#D9CFDD"/>
<path d="M49.8515 46.0092C51.3827 46.0092 52.624 44.7449 52.624 43.1853C52.624 41.6257 51.3827 40.3614 49.8515 40.3614C48.3204 40.3614 47.0791 41.6257 47.0791 43.1853C47.0791 44.7449 48.3204 46.0092 49.8515 46.0092Z" fill="#D9CFDD"/>
<path d="M49.8515 65.75C51.3827 65.75 52.624 64.4857 52.624 62.9261C52.624 61.3665 51.3827 60.1022 49.8515 60.1022C48.3204 60.1022 47.0791 61.3665 47.0791 62.9261C47.0791 64.4857 48.3204 65.75 49.8515 65.75Z" fill="#D9CFDD"/>
<path d="M49.8515 85.4908C48.3286 85.4908 47.0791 84.2313 47.0791 82.6669C47.0791 81.1157 48.3156 79.843 49.8515 79.843C51.3874 79.843 52.624 81.1024 52.624 82.6669C52.6109 84.2313 51.3744 85.4908 49.8515 85.4908Z" fill="#D9CFDD"/>
<path d="M49.8515 105.232C48.3286 105.232 47.0791 103.972 47.0791 102.408C47.0791 100.843 48.3156 99.5837 49.8515 99.5837C51.3874 99.5837 52.624 100.843 52.624 102.408C52.6109 103.972 51.3744 105.232 49.8515 105.232Z" fill="#D9CFDD"/>
<path d="M49.8515 124.985C51.3827 124.985 52.624 123.721 52.624 122.161C52.624 120.602 51.3827 119.338 49.8515 119.338C48.3204 119.338 47.0791 120.602 47.0791 122.161C47.0791 123.721 48.3204 124.985 49.8515 124.985Z" fill="#D9CFDD"/>
<path d="M49.8515 144.726C51.3827 144.726 52.624 143.462 52.624 141.902C52.624 140.343 51.3827 139.078 49.8515 139.078C48.3204 139.078 47.0791 140.343 47.0791 141.902C47.0791 143.462 48.3204 144.726 49.8515 144.726Z" fill="#D9CFDD"/>
<path d="M49.8515 164.467C48.3286 164.467 47.0791 163.208 47.0791 161.643C47.0791 160.092 48.3156 158.819 49.8515 158.819C51.3874 158.819 52.624 160.079 52.624 161.643C52.6109 163.194 51.3744 164.467 49.8515 164.467Z" fill="#D9CFDD"/>
<path d="M34.1543 6.51454C32.6184 6.51454 31.3818 5.25507 31.3818 3.69066C31.3818 2.12625 32.6184 0.86676 34.1543 0.86676C35.6771 0.86676 36.9267 2.12625 36.9267 3.69066C36.9267 5.25507 35.6902 6.51454 34.1543 6.51454Z" fill="#D9CFDD"/>
<path d="M34.1543 26.2553C32.6184 26.2553 31.3818 24.9958 31.3818 23.4314C31.3818 21.867 32.6184 20.6075 34.1543 20.6075C35.6771 20.6075 36.9267 21.867 36.9267 23.4314C36.9267 24.9958 35.6902 26.2553 34.1543 26.2553Z" fill="#D9CFDD"/>
<path d="M34.1543 45.9959C32.6184 45.9959 31.3818 44.7365 31.3818 43.172C31.3818 41.6076 32.6184 40.3481 34.1543 40.3481C35.6771 40.3481 36.9267 41.6076 36.9267 43.172C36.9267 44.7365 35.6902 45.9959 34.1543 45.9959Z" fill="#D9CFDD"/>
<path d="M34.1543 65.75C32.6184 65.75 31.3818 64.4905 31.3818 62.9261C31.3818 61.3617 32.6184 60.1022 34.1543 60.1022C35.6771 60.1022 36.9267 61.3617 36.9267 62.9261C36.9267 64.4773 35.6902 65.75 34.1543 65.75Z" fill="#D9CFDD"/>
<path d="M34.1543 85.4908C32.6184 85.4908 31.3818 84.2313 31.3818 82.6669C31.3818 81.1157 32.6184 79.843 34.1543 79.843C35.6771 79.843 36.9267 81.1024 36.9267 82.6669C36.9267 84.2313 35.6902 85.4908 34.1543 85.4908Z" fill="#D9CFDD"/>
<path d="M34.1543 105.232C32.6184 105.232 31.3818 103.972 31.3818 102.408C31.3818 100.843 32.6184 99.5837 34.1543 99.5837C35.6771 99.5837 36.9267 100.843 36.9267 102.408C36.9267 103.972 35.6902 105.232 34.1543 105.232Z" fill="#D9CFDD"/>
<path d="M34.1543 124.972C32.6184 124.972 31.3818 123.713 31.3818 122.148C31.3818 120.584 32.6184 119.324 34.1543 119.324C35.6771 119.324 36.9267 120.584 36.9267 122.148C36.9267 123.713 35.6902 124.972 34.1543 124.972Z" fill="#D9CFDD"/>
<path d="M34.1543 144.713C32.6184 144.713 31.3818 143.453 31.3818 141.889C31.3818 140.325 32.6184 139.065 34.1543 139.065C35.6771 139.065 36.9267 140.325 36.9267 141.889C36.9267 143.453 35.6902 144.713 34.1543 144.713Z" fill="#D9CFDD"/>
<path d="M34.1543 164.467C32.6184 164.467 31.3818 163.208 31.3818 161.643C31.3818 160.092 32.6184 158.819 34.1543 158.819C35.6771 158.819 36.9267 160.079 36.9267 161.643C36.9267 163.194 35.6902 164.467 34.1543 164.467Z" fill="#D9CFDD"/>
<path d="M19.5334 6.29954C20.9467 5.69941 21.6147 4.04597 21.0256 2.60646C20.4364 1.16696 18.813 0.48651 17.3998 1.08664C15.9865 1.68677 15.3185 3.34023 15.9077 4.77974C16.4968 6.21924 18.1202 6.89967 19.5334 6.29954Z" fill="#D9CFDD"/>
<path d="M19.5373 26.0529C20.9506 25.4527 21.6186 23.7993 21.0295 22.3598C20.4403 20.9203 18.8169 20.2398 17.4037 20.8399C15.9904 21.4401 15.3224 23.0935 15.9116 24.533C16.5007 25.9725 18.1241 26.653 19.5373 26.0529Z" fill="#D9CFDD"/>
<path d="M19.5354 45.794C20.9486 45.1939 21.6167 43.5404 21.0275 42.1009C20.4383 40.6614 18.815 39.981 17.4017 40.5811C15.9885 41.1812 15.3204 42.8347 15.9096 44.2742C16.4988 45.7137 18.1221 46.3941 19.5354 45.794Z" fill="#D9CFDD"/>
<path d="M19.5344 65.5349C20.9477 64.9348 21.6157 63.2813 21.0265 61.8418C20.4373 60.4023 18.814 59.7219 17.4007 60.322C15.9875 60.9221 15.3194 62.5756 15.9086 64.0151C16.4978 65.4546 18.1211 66.135 19.5344 65.5349Z" fill="#D9CFDD"/>
<path d="M18.4697 85.4908C16.9468 85.4908 15.6973 84.2313 15.6973 82.6669C15.6973 81.1157 16.9338 79.843 18.4697 79.843C20.0056 79.843 21.2421 81.1024 21.2421 82.6669C21.2291 84.2313 19.9926 85.4908 18.4697 85.4908Z" fill="#D9CFDD"/>
<path d="M18.4697 105.232C16.9468 105.232 15.6973 103.972 15.6973 102.408C15.6973 100.843 16.9338 99.5837 18.4697 99.5837C20.0056 99.5837 21.2421 100.843 21.2421 102.408C21.2291 103.972 19.9926 105.232 18.4697 105.232Z" fill="#D9CFDD"/>
<path d="M21.0735 123.128C21.6109 121.668 20.8843 120.04 19.4505 119.493C18.0168 118.946 16.4188 119.686 15.8813 121.146C15.3439 122.606 16.0705 124.234 17.5043 124.782C18.9381 125.329 20.5361 124.589 21.0735 123.128Z" fill="#D9CFDD"/>
<path d="M21.1681 142.524C21.5197 141.006 20.5966 139.486 19.1063 139.127C17.616 138.769 16.1229 139.71 15.7713 141.228C15.4198 142.746 16.3429 144.266 17.8332 144.625C19.3235 144.983 20.8165 144.042 21.1681 142.524Z" fill="#D9CFDD"/>
<path d="M18.4697 164.467C16.9468 164.467 15.6973 163.208 15.6973 161.643C15.6973 160.092 16.9338 158.819 18.4697 158.819C20.0056 158.819 21.2421 160.079 21.2421 161.643C21.2291 163.194 19.9926 164.467 18.4697 164.467Z" fill="#D9CFDD"/>
<path d="M2.77243 6.51454C4.30359 6.51454 5.54483 5.25025 5.54483 3.69066C5.54483 2.13107 4.30359 0.86676 2.77243 0.86676C1.24126 0.86676 0 2.13107 0 3.69066C0 5.25025 1.24126 6.51454 2.77243 6.51454Z" fill="#D9CFDD"/>
<path d="M2.77243 26.2685C4.30359 26.2685 5.54483 25.0042 5.54483 23.4446C5.54483 21.885 4.30359 20.6207 2.77243 20.6207C1.24126 20.6207 0 21.885 0 23.4446C0 25.0042 1.24126 26.2685 2.77243 26.2685Z" fill="#D9CFDD"/>
<path d="M2.77243 46.0092C4.30359 46.0092 5.54483 44.7449 5.54483 43.1853C5.54483 41.6257 4.30359 40.3614 2.77243 40.3614C1.24126 40.3614 0 41.6257 0 43.1853C0 44.7449 1.24126 46.0092 2.77243 46.0092Z" fill="#D9CFDD"/>
<path d="M2.77243 65.75C4.30359 65.75 5.54483 64.4857 5.54483 62.9261C5.54483 61.3665 4.30359 60.1022 2.77243 60.1022C1.24126 60.1022 0 61.3665 0 62.9261C0 64.4857 1.24126 65.75 2.77243 65.75Z" fill="#D9CFDD"/>
<path d="M2.77243 85.4908C1.23653 85.4908 0 84.2313 0 82.6669C0 81.1157 1.23653 79.843 2.77243 79.843C4.29531 79.843 5.54483 81.1024 5.54483 82.6669C5.54483 84.2313 4.30832 85.4908 2.77243 85.4908Z" fill="#D9CFDD"/>
<path d="M2.77243 105.232C1.23653 105.232 0 103.972 0 102.408C0 100.843 1.23653 99.5837 2.77243 99.5837C4.29531 99.5837 5.54483 100.843 5.54483 102.408C5.54483 103.972 4.30832 105.232 2.77243 105.232Z" fill="#D9CFDD"/>
<path d="M2.77243 124.985C4.30359 124.985 5.54483 123.721 5.54483 122.161C5.54483 120.602 4.30359 119.338 2.77243 119.338C1.24126 119.338 0 120.602 0 122.161C0 123.721 1.24126 124.985 2.77243 124.985Z" fill="#D9CFDD"/>
<path d="M2.77243 144.726C4.30359 144.726 5.54483 143.462 5.54483 141.902C5.54483 140.343 4.30359 139.078 2.77243 139.078C1.24126 139.078 0 140.343 0 141.902C0 143.462 1.24126 144.726 2.77243 144.726Z" fill="#D9CFDD"/>
<path d="M2.77243 164.467C1.23653 164.467 0 163.208 0 161.643C0 160.092 1.23653 158.819 2.77243 158.819C4.29531 158.819 5.54483 160.079 5.54483 161.643C5.54483 163.194 4.30832 164.467 2.77243 164.467Z" fill="#D9CFDD"/>
</svg>
