<svg width="403" height="375" viewBox="0 0 403 375" fill="none" xmlns="http://www.w3.org/2000/svg">
<path d="M177.505 348.415C275.118 348.415 354.249 270.42 354.249 174.208C354.249 77.9954 275.118 0 177.505 0C79.8918 0 0.760742 77.9954 0.760742 174.208C0.760742 270.42 79.8918 348.415 177.505 348.415Z" fill="#68ADB7" fill-opacity="0.3"/>
<path d="M224.374 373.455C321.79 373.455 400.761 295.62 400.761 199.605C400.761 103.591 321.79 25.7555 224.374 25.7555C126.959 25.7555 47.9878 103.591 47.9878 199.605C47.9878 295.62 126.959 373.455 224.374 373.455Z" stroke="#68ADB7" stroke-width="3" stroke-miterlimit="10"/>
<path d="M238.607 157.275C237.246 157.275 236.13 156.187 236.13 154.837C236.13 153.486 237.235 152.398 238.607 152.398C239.967 152.398 241.083 153.486 241.083 154.837C241.071 156.187 239.967 157.275 238.607 157.275Z" fill="white"/>
<path d="M238.607 174.32C237.246 174.32 236.13 173.233 236.13 171.882C236.13 170.531 237.235 169.444 238.607 169.444C239.967 169.444 241.083 170.531 241.083 171.882C241.071 173.233 239.967 174.32 238.607 174.32Z" fill="white"/>
<path d="M238.607 191.366C237.246 191.366 236.13 190.278 236.13 188.927C236.13 187.576 237.235 186.489 238.607 186.489C239.967 186.489 241.083 187.576 241.083 188.927C241.071 190.278 239.967 191.366 238.607 191.366Z" fill="white"/>
<path d="M238.607 208.422C237.246 208.422 236.13 207.335 236.13 205.984C236.13 204.633 237.235 203.546 238.607 203.546C239.967 203.546 241.083 204.633 241.083 205.984C241.071 207.323 239.967 208.422 238.607 208.422Z" fill="white"/>
<path d="M238.607 225.468C237.246 225.468 236.13 224.38 236.13 223.029C236.13 221.69 237.235 220.591 238.607 220.591C239.967 220.591 241.083 221.678 241.083 223.029C241.071 224.38 239.967 225.468 238.607 225.468Z" fill="white"/>
<path d="M238.607 242.513C237.246 242.513 236.13 241.425 236.13 240.075C236.13 238.724 237.235 237.636 238.607 237.636C239.967 237.636 241.083 238.724 241.083 240.075C241.071 241.425 239.967 242.513 238.607 242.513Z" fill="white"/>
<path d="M238.607 259.558C237.246 259.558 236.13 258.471 236.13 257.12C236.13 255.769 237.235 254.682 238.607 254.682C239.967 254.682 241.083 255.769 241.083 257.12C241.083 258.471 239.967 259.558 238.607 259.558Z" fill="white"/>
<path d="M238.607 276.604C237.246 276.604 236.13 275.516 236.13 274.165C236.13 272.814 237.235 271.727 238.607 271.727C239.967 271.727 241.083 272.814 241.083 274.165C241.083 275.516 239.967 276.604 238.607 276.604Z" fill="white"/>
<path d="M238.607 293.66C237.246 293.66 236.13 292.573 236.13 291.222C236.13 289.883 237.235 288.784 238.607 288.784C239.967 288.784 241.083 289.871 241.083 291.222C241.071 292.561 239.967 293.66 238.607 293.66Z" fill="white"/>
<path d="M224.587 157.275C223.215 157.275 222.11 156.187 222.11 154.837C222.11 153.486 223.215 152.398 224.587 152.398C225.947 152.398 227.063 153.486 227.063 154.837C227.063 156.187 225.958 157.275 224.587 157.275Z" fill="white"/>
<path d="M224.587 174.32C223.215 174.32 222.11 173.233 222.11 171.882C222.11 170.531 223.215 169.444 224.587 169.444C225.947 169.444 227.063 170.531 227.063 171.882C227.063 173.233 225.958 174.32 224.587 174.32Z" fill="white"/>
<path d="M224.587 191.366C223.215 191.366 222.11 190.278 222.11 188.927C222.11 187.576 223.215 186.489 224.587 186.489C225.947 186.489 227.063 187.576 227.063 188.927C227.063 190.278 225.958 191.366 224.587 191.366Z" fill="white"/>
<path d="M224.587 208.422C223.215 208.422 222.11 207.335 222.11 205.984C222.11 204.633 223.215 203.546 224.587 203.546C225.947 203.546 227.063 204.633 227.063 205.984C227.063 207.323 225.958 208.422 224.587 208.422Z" fill="white"/>
<path d="M224.587 225.468C223.215 225.468 222.11 224.38 222.11 223.029C222.11 221.69 223.215 220.591 224.587 220.591C225.947 220.591 227.063 221.678 227.063 223.029C227.063 224.38 225.958 225.468 224.587 225.468Z" fill="white"/>
<path d="M224.587 242.513C223.215 242.513 222.11 241.425 222.11 240.075C222.11 238.724 223.215 237.636 224.587 237.636C225.947 237.636 227.063 238.724 227.063 240.075C227.063 241.425 225.958 242.513 224.587 242.513Z" fill="white"/>
<path d="M224.587 259.558C223.215 259.558 222.11 258.471 222.11 257.12C222.11 255.769 223.215 254.682 224.587 254.682C225.947 254.682 227.063 255.769 227.063 257.12C227.063 258.471 225.958 259.558 224.587 259.558Z" fill="white"/>
<path d="M224.587 276.604C223.215 276.604 222.11 275.516 222.11 274.165C222.11 272.814 223.215 271.727 224.587 271.727C225.947 271.727 227.063 272.814 227.063 274.165C227.063 275.516 225.958 276.604 224.587 276.604Z" fill="white"/>
<path d="M224.587 293.66C223.215 293.66 222.11 292.573 222.11 291.222C222.11 289.883 223.215 288.784 224.587 288.784C225.947 288.784 227.063 289.871 227.063 291.222C227.063 292.561 225.958 293.66 224.587 293.66Z" fill="white"/>
<path d="M210.578 157.275C211.945 157.275 213.054 156.183 213.054 154.837C213.054 153.49 211.945 152.398 210.578 152.398C209.21 152.398 208.102 153.49 208.102 154.837C208.102 156.183 209.21 157.275 210.578 157.275Z" fill="white"/>
<path d="M210.578 174.332C211.945 174.332 213.054 173.24 213.054 171.893C213.054 170.547 211.945 169.455 210.578 169.455C209.21 169.455 208.102 170.547 208.102 171.893C208.102 173.24 209.21 174.332 210.578 174.332Z" fill="white"/>
<path d="M210.578 191.377C211.945 191.377 213.054 190.285 213.054 188.939C213.054 187.592 211.945 186.5 210.578 186.5C209.21 186.5 208.102 187.592 208.102 188.939C208.102 190.285 209.21 191.377 210.578 191.377Z" fill="white"/>
<path d="M210.578 208.422C211.945 208.422 213.054 207.331 213.054 205.984C213.054 204.637 211.945 203.546 210.578 203.546C209.21 203.546 208.102 204.637 208.102 205.984C208.102 207.331 209.21 208.422 210.578 208.422Z" fill="white"/>
<path d="M210.578 225.468C209.218 225.468 208.102 224.38 208.102 223.029C208.102 221.69 209.206 220.591 210.578 220.591C211.95 220.591 213.054 221.678 213.054 223.029C213.042 224.38 211.938 225.468 210.578 225.468Z" fill="white"/>
<path d="M210.578 242.513C209.218 242.513 208.102 241.425 208.102 240.075C208.102 238.724 209.206 237.636 210.578 237.636C211.95 237.636 213.054 238.724 213.054 240.075C213.042 241.425 211.938 242.513 210.578 242.513Z" fill="white"/>
<path d="M210.578 259.57C211.945 259.57 213.054 258.478 213.054 257.131C213.054 255.785 211.945 254.693 210.578 254.693C209.21 254.693 208.102 255.785 208.102 257.131C208.102 258.478 209.21 259.57 210.578 259.57Z" fill="white"/>
<path d="M210.578 276.615C211.945 276.615 213.054 275.523 213.054 274.177C213.054 272.83 211.945 271.738 210.578 271.738C209.21 271.738 208.102 272.83 208.102 274.177C208.102 275.523 209.21 276.615 210.578 276.615Z" fill="white"/>
<path d="M210.578 293.66C209.218 293.66 208.102 292.573 208.102 291.222C208.102 289.883 209.206 288.784 210.578 288.784C211.95 288.784 213.054 289.871 213.054 291.222C213.042 292.561 211.938 293.66 210.578 293.66Z" fill="white"/>
<path d="M196.557 157.275C195.185 157.275 194.081 156.187 194.081 154.837C194.081 153.486 195.185 152.398 196.557 152.398C197.917 152.398 199.034 153.486 199.034 154.837C199.034 156.187 197.929 157.275 196.557 157.275Z" fill="white"/>
<path d="M196.557 174.32C195.185 174.32 194.081 173.233 194.081 171.882C194.081 170.531 195.185 169.444 196.557 169.444C197.917 169.444 199.034 170.531 199.034 171.882C199.034 173.233 197.929 174.32 196.557 174.32Z" fill="white"/>
<path d="M196.557 191.366C195.185 191.366 194.081 190.278 194.081 188.927C194.081 187.576 195.185 186.489 196.557 186.489C197.917 186.489 199.034 187.576 199.034 188.927C199.034 190.278 197.929 191.366 196.557 191.366Z" fill="white"/>
<path d="M196.557 208.422C195.185 208.422 194.081 207.335 194.081 205.984C194.081 204.633 195.185 203.546 196.557 203.546C197.917 203.546 199.034 204.633 199.034 205.984C199.034 207.323 197.929 208.422 196.557 208.422Z" fill="white"/>
<path d="M196.557 225.468C195.185 225.468 194.081 224.38 194.081 223.029C194.081 221.69 195.185 220.591 196.557 220.591C197.917 220.591 199.034 221.678 199.034 223.029C199.034 224.38 197.929 225.468 196.557 225.468Z" fill="white"/>
<path d="M196.557 242.513C195.185 242.513 194.081 241.425 194.081 240.075C194.081 238.724 195.185 237.636 196.557 237.636C197.917 237.636 199.034 238.724 199.034 240.075C199.034 241.425 197.929 242.513 196.557 242.513Z" fill="white"/>
<path d="M196.557 259.558C195.185 259.558 194.081 258.471 194.081 257.12C194.081 255.769 195.185 254.682 196.557 254.682C197.917 254.682 199.034 255.769 199.034 257.12C199.034 258.471 197.929 259.558 196.557 259.558Z" fill="white"/>
<path d="M196.557 276.604C195.185 276.604 194.081 275.516 194.081 274.165C194.081 272.814 195.185 271.727 196.557 271.727C197.917 271.727 199.034 272.814 199.034 274.165C199.034 275.516 197.929 276.604 196.557 276.604Z" fill="white"/>
<path d="M196.557 293.66C195.185 293.66 194.081 292.573 194.081 291.222C194.081 289.883 195.185 288.784 196.557 288.784C197.917 288.784 199.034 289.871 199.034 291.222C199.034 292.561 197.929 293.66 196.557 293.66Z" fill="white"/>
<path d="M183.498 157.089C184.76 156.571 185.357 155.143 184.831 153.9C184.304 152.658 182.854 152.07 181.592 152.588C180.33 153.106 179.733 154.534 180.259 155.777C180.786 157.02 182.236 157.607 183.498 157.089Z" fill="white"/>
<path d="M183.501 174.145C184.764 173.627 185.36 172.2 184.834 170.957C184.308 169.714 182.858 169.126 181.596 169.644C180.333 170.163 179.737 171.59 180.263 172.833C180.789 174.076 182.239 174.664 183.501 174.145Z" fill="white"/>
<path d="M183.5 191.191C184.763 190.673 185.359 189.245 184.833 188.002C184.307 186.759 182.857 186.172 181.595 186.69C180.332 187.208 179.736 188.636 180.262 189.879C180.788 191.122 182.238 191.709 183.5 191.191Z" fill="white"/>
<path d="M183.499 208.237C184.761 207.718 185.358 206.291 184.832 205.048C184.305 203.805 182.855 203.217 181.593 203.736C180.331 204.254 179.734 205.681 180.26 206.924C180.787 208.167 182.237 208.755 183.499 208.237Z" fill="white"/>
<path d="M182.549 225.468C181.188 225.468 180.072 224.38 180.072 223.029C180.072 221.69 181.177 220.591 182.549 220.591C183.92 220.591 185.025 221.678 185.025 223.029C185.013 224.38 183.909 225.468 182.549 225.468Z" fill="white"/>
<path d="M182.549 242.513C181.188 242.513 180.072 241.425 180.072 240.075C180.072 238.724 181.177 237.636 182.549 237.636C183.92 237.636 185.025 238.724 185.025 240.075C185.013 241.425 183.909 242.513 182.549 242.513Z" fill="white"/>
<path d="M184.874 257.966C185.354 256.705 184.705 255.3 183.424 254.827C182.144 254.355 180.716 254.994 180.236 256.255C179.756 257.516 180.405 258.921 181.686 259.394C182.967 259.866 184.394 259.227 184.874 257.966Z" fill="white"/>
<path d="M184.958 274.714C185.272 273.403 184.448 272.09 183.117 271.781C181.785 271.472 180.452 272.283 180.138 273.594C179.824 274.905 180.648 276.218 181.979 276.527C183.311 276.836 184.644 276.025 184.958 274.714Z" fill="white"/>
<path d="M182.549 293.66C181.188 293.66 180.072 292.573 180.072 291.222C180.072 289.883 181.177 288.784 182.549 288.784C183.92 288.784 185.025 289.871 185.025 291.222C185.013 292.561 183.909 293.66 182.549 293.66Z" fill="white"/>
<path d="M168.528 157.275C169.896 157.275 171.004 156.183 171.004 154.837C171.004 153.49 169.896 152.398 168.528 152.398C167.16 152.398 166.052 153.49 166.052 154.837C166.052 156.183 167.16 157.275 168.528 157.275Z" fill="white"/>
<path d="M168.528 174.332C169.896 174.332 171.004 173.24 171.004 171.893C171.004 170.547 169.896 169.455 168.528 169.455C167.16 169.455 166.052 170.547 166.052 171.893C166.052 173.24 167.16 174.332 168.528 174.332Z" fill="white"/>
<path d="M168.528 191.377C169.896 191.377 171.004 190.285 171.004 188.939C171.004 187.592 169.896 186.5 168.528 186.5C167.16 186.5 166.052 187.592 166.052 188.939C166.052 190.285 167.16 191.377 168.528 191.377Z" fill="white"/>
<path d="M168.528 208.422C169.896 208.422 171.004 207.331 171.004 205.984C171.004 204.637 169.896 203.546 168.528 203.546C167.16 203.546 166.052 204.637 166.052 205.984C166.052 207.331 167.16 208.422 168.528 208.422Z" fill="white"/>
<path d="M168.528 225.468C167.156 225.468 166.052 224.38 166.052 223.029C166.052 221.69 167.156 220.591 168.528 220.591C169.888 220.591 171.004 221.678 171.004 223.029C171.004 224.38 169.9 225.468 168.528 225.468Z" fill="white"/>
<path d="M168.528 242.513C167.156 242.513 166.052 241.425 166.052 240.075C166.052 238.724 167.156 237.636 168.528 237.636C169.888 237.636 171.004 238.724 171.004 240.075C171.004 241.425 169.9 242.513 168.528 242.513Z" fill="white"/>
<path d="M168.528 259.57C169.896 259.57 171.004 258.478 171.004 257.131C171.004 255.785 169.896 254.693 168.528 254.693C167.16 254.693 166.052 255.785 166.052 257.131C166.052 258.478 167.16 259.57 168.528 259.57Z" fill="white"/>
<path d="M168.528 276.615C169.896 276.615 171.004 275.523 171.004 274.177C171.004 272.83 169.896 271.738 168.528 271.738C167.16 271.738 166.052 272.83 166.052 274.177C166.052 275.523 167.16 276.615 168.528 276.615Z" fill="white"/>
<path d="M168.528 293.66C167.156 293.66 166.052 292.573 166.052 291.222C166.052 289.883 167.156 288.784 168.528 288.784C169.888 288.784 171.004 289.871 171.004 291.222C171.004 292.561 169.9 293.66 168.528 293.66Z" fill="white"/>
</svg>
