<svg width="48" height="51" viewBox="0 0 48 51" fill="none" xmlns="http://www.w3.org/2000/svg">
<path d="M34.2479 19.8575C35.1202 18.1147 36.6323 16.8044 38.5126 16.172C39.2993 15.9067 40.1102 15.8049 40.9174 15.8013V5.45186C40.9174 2.44607 38.414 0 35.3378 0H5.57965C2.5034 0 0 2.44607 0 5.45186V41.7976C0 44.8034 2.5034 47.2495 5.57965 47.2495H24.0836L23.8828 46.6788C23.0737 44.3727 23.2318 41.9084 24.3236 39.7295L34.2479 19.8575ZM7.43953 10.9037H29.7581C30.7866 10.9037 31.618 11.7179 31.618 12.721C31.618 13.7241 30.7866 14.5383 29.7581 14.5383H7.43953C6.41102 14.5383 5.57965 13.7241 5.57965 12.721C5.57965 11.7179 6.41102 10.9037 7.43953 10.9037ZM7.43953 18.1729H27.8983C28.9268 18.1729 29.7581 18.987 29.7581 19.9902C29.7581 20.9933 28.9268 21.8074 27.8983 21.8074H7.43953C6.41102 21.8074 5.57965 20.9933 5.57965 19.9902C5.57965 18.987 6.41102 18.1729 7.43953 18.1729ZM20.4587 36.3457H7.43953C6.41102 36.3457 5.57965 35.5316 5.57965 34.5284C5.57965 33.5253 6.41102 32.7112 7.43953 32.7112H20.4587C21.4872 32.7112 22.3186 33.5253 22.3186 34.5284C22.3186 35.5316 21.4872 36.3457 20.4587 36.3457ZM7.43953 29.0766C6.41102 29.0766 5.57965 28.2624 5.57965 27.2593C5.57965 26.2562 6.41102 25.442 7.43953 25.442H24.1785C25.207 25.442 26.0384 26.2562 26.0384 27.2593C26.0384 28.2624 25.207 29.0766 24.1785 29.0766H7.43953ZM47.6205 26.2325L37.6924 46.1118C37.0359 47.4221 35.8995 48.4034 34.4915 48.8759L30.9745 50.0572C30.7755 50.1244 30.569 50.1571 30.37 50.1571C29.5982 50.1571 28.8766 49.6846 28.6124 48.9304L27.4017 45.494C26.9162 44.1128 27.0111 42.6335 27.6658 41.3269L37.5938 21.4513C38.0272 20.579 38.786 19.9247 39.7253 19.6085C40.6626 19.2923 41.6726 19.3505 42.5653 19.7793L45.9094 21.3731C46.8021 21.7984 47.4717 22.5398 47.7953 23.4575C48.1189 24.3753 48.0575 25.3602 47.6205 26.2325Z" fill="white"/>
</svg>
