<svg width="48" height="43" viewBox="0 0 48 43" fill="none" xmlns="http://www.w3.org/2000/svg">
<path d="M35.668 0.654785H12.3346C5.33464 0.654785 0.667969 4.36392 0.667969 13.0186V30.3279C0.667969 38.9825 5.33464 42.6917 12.3346 42.6917H35.668C42.668 42.6917 47.3346 38.9825 47.3346 30.3279V13.0186C47.3346 4.36392 42.668 0.654785 35.668 0.654785ZM36.7646 15.7139L29.4613 21.8958C27.9213 23.2063 25.9613 23.8493 24.0013 23.8493C22.0413 23.8493 20.058 23.2063 18.5413 21.8958L11.238 15.7139C10.4913 15.071 10.3746 13.884 10.958 13.0928C11.5646 12.3015 12.6613 12.1531 13.408 12.796L20.7113 18.9779C22.4846 20.4863 25.4946 20.4863 27.268 18.9779L34.5713 12.796C35.318 12.1531 36.438 12.2768 37.0213 13.0928C37.628 13.884 37.5113 15.071 36.7646 15.7139Z" fill="white"/>
</svg>
