<svg width="50" height="45" viewBox="0 0 50 45" fill="none" xmlns="http://www.w3.org/2000/svg">
<path d="M35.8899 0H11.9585C4.78053 0 0 3.80344 0 12.6731V30.4275C0 39.2972 4.78053 43.1006 11.9585 43.1006H25.2665C25.3813 42.7583 25.5536 42.4388 25.7833 42.1498C25.8551 42.0204 26.1565 41.3662 26.1063 40.0046C25.9915 37.0836 27.0179 35.3644 27.8936 34.4288C28.8698 33.4018 30.1044 32.7324 31.4324 32.5042L31.5113 32.2304C31.8702 30.9752 32.5665 29.8722 33.5211 29.0431L34.6768 28.0466L36.9307 26.0916L44.8624 19.2302C45.7022 18.5076 46.7502 18.1044 47.8269 18.1044H47.8484V12.6731C47.8484 3.80344 43.0679 0 35.8899 0ZM37.0096 15.442L29.523 21.7785C27.9439 23.1249 25.934 23.7791 23.9242 23.7791C21.9144 23.7791 19.883 23.1249 18.3254 21.7785L10.8387 15.442C10.0707 14.7802 9.94868 13.5631 10.5516 12.7491C11.1689 11.9428 12.2959 11.7907 13.0639 12.4449L20.5505 18.789C22.3666 20.3332 25.4531 20.3332 27.2763 18.789L34.7629 12.4449C35.531 11.7907 36.6795 11.9124 37.2752 12.7491C37.8997 13.5631 37.7777 14.7802 37.0096 15.442Z" fill="white"/>
<path d="M36.4057 40.2101C36.2549 40.986 35.896 41.7087 35.329 42.3096C35.006 42.6519 34.6184 42.9182 34.159 43.1007C33.5417 43.3594 32.7951 43.4659 31.941 43.4278C29.3066 43.3137 28.23 44.3635 28.2084 44.3863C28.1438 44.4624 28.0505 44.4928 27.9644 44.4928C27.8711 44.4928 27.7777 44.4624 27.7131 44.3863C27.6414 44.3102 27.6055 44.2114 27.6055 44.1201C27.6055 44.0212 27.6414 43.9299 27.706 43.8614H27.7131C27.7131 43.8614 27.9213 43.618 28.1366 43.1007C28.395 42.477 28.675 41.4424 28.6176 39.8982C28.553 38.3236 28.9119 37.1217 29.6727 36.3154C30.2254 35.7297 30.9073 35.3341 31.6538 35.1668C31.9266 35.0983 32.2137 35.0679 32.5008 35.0679C33.5704 35.0679 34.5753 35.5091 35.329 36.3154C36.3195 37.3652 36.6856 38.8485 36.4057 40.2101Z" fill="white"/>
<path d="M36.7644 29.6746L41.5951 34.8016L41.3439 35.1211L40.2385 36.5588C39.8581 37.0532 39.37 37.4336 38.8244 37.6694C38.7024 37.7303 38.5804 37.7759 38.4584 37.8139C38.2071 36.6805 37.6616 35.6079 36.829 34.7179C36.0178 33.8583 35.0129 33.265 33.9219 32.9988C33.9578 32.8618 34.0008 32.7325 34.0583 32.6032C34.2808 32.0251 34.6397 31.5078 35.1062 31.1123L36.4629 29.9408L36.7644 29.6746Z" fill="white"/>
<path d="M49.506 24.5246L47.8479 26.6774L43.1894 32.7249L42.9453 33.0444L38.416 28.2444L38.7175 27.9858L46.4553 21.2917C46.8645 20.9342 47.3598 20.7668 47.8479 20.7668C48.4006 20.7745 48.9461 21.0027 49.3624 21.4439C50.152 22.2806 50.2166 23.6042 49.506 24.5246Z" fill="white"/>
</svg>
