<svg width="48" height="44" viewBox="0 0 48 44" fill="none" xmlns="http://www.w3.org/2000/svg">
<path d="M39.0969 32.4649L40.0069 39.3116C40.2402 41.1099 38.1636 42.3666 36.5069 41.4349L28.4336 36.9716C27.8736 36.6683 27.7336 36.0183 28.0369 35.4983C29.2036 33.5049 29.8336 31.2516 29.8336 28.9983C29.8336 21.0683 22.5069 14.6116 13.5002 14.6116C11.6569 14.6116 9.86024 14.8716 8.18024 15.3916C7.31691 15.6516 6.47691 14.9149 6.68691 14.0916C8.81024 6.20492 16.9769 0.333252 26.7302 0.333252C38.1169 0.333252 47.3336 8.32825 47.3336 18.1866C47.3336 24.0366 44.0902 29.2149 39.0969 32.4649Z" fill="white"/>
<path d="M26.3346 28.9985C26.3346 31.5768 25.308 33.9601 23.5813 35.8451C21.2713 38.4451 17.608 40.1135 13.5013 40.1135L7.4113 43.4718C6.38464 44.0568 5.07797 43.2551 5.21797 42.1501L5.8013 37.8818C2.67463 35.8668 0.667969 32.6385 0.667969 28.9985C0.667969 25.1851 2.8613 21.8268 6.2213 19.8335C8.29797 18.5768 10.7946 17.8618 13.5013 17.8618C20.5946 17.8618 26.3346 22.8451 26.3346 28.9985Z" fill="white"/>
</svg>
