<svg width="159" height="35" viewBox="0 0 159 35" fill="none" xmlns="http://www.w3.org/2000/svg">
<g clip-path="url(#clip0_602_2027)">
<path d="M80.8191 26.0374C80.8191 25.9428 80.8037 25.8641 80.8037 25.7696C80.8037 25.8483 80.8191 25.9428 80.8191 26.0374Z" fill="white"/>
<path d="M55.9044 29.2979H57.9078C58.4166 29.2979 58.8618 29.0144 59.0685 28.5576L66.8913 11.4829H64.2519C63.1707 11.4829 62.2008 12.113 61.7556 13.0738L56.9061 23.6589L52.0725 13.0738C51.6273 12.0972 50.6574 11.4829 49.5762 11.4829H46.9209L54.7437 28.5576C54.9504 29.0144 55.4115 29.2979 55.9044 29.2979Z" fill="white"/>
<path d="M74.9363 15.09C74.9209 14.9797 74.9209 14.8852 74.9209 14.775C74.9209 14.8852 74.9209 14.9955 74.9363 15.09Z" fill="white"/>
<path d="M8.9835 29.2979H10.9869C11.4957 29.2979 11.9409 29.0144 12.1476 28.5576L19.9704 11.4829H17.331C16.2498 11.4829 15.2799 12.113 14.8347 13.0738L9.9852 23.6589L5.1357 13.0738C4.6905 12.0972 3.7206 11.4829 2.6394 11.4829H0L7.8228 28.5576C8.0295 29.0144 8.4906 29.2979 8.9835 29.2979Z" fill="white"/>
<path d="M42.2149 29.2979H44.4091C44.9179 29.2979 45.3154 28.8884 45.3154 28.4001V0H44.0434C42.5329 0 41.3086 1.21287 41.3086 2.70927V28.4001C41.3086 28.9041 41.7061 29.2979 42.2149 29.2979Z" fill="white"/>
<path d="M112.874 11.4829H111.602V12.9793C109.996 11.9082 108.009 11.3411 105.894 11.5144C101.506 11.8609 97.9919 15.3735 97.658 19.721C97.2605 24.9347 101.442 29.3137 106.626 29.3137C108.47 29.3137 110.171 28.7624 111.602 27.8173V28.4001C111.602 28.9041 112.016 29.2979 112.509 29.2979H114.703C115.212 29.2979 115.609 28.8884 115.609 28.4001V14.2079C115.609 12.6958 114.385 11.4829 112.874 11.4829ZM111.586 20.7921C111.539 21.4221 111.364 22.0365 111.078 22.572C110.314 24.0842 108.788 25.1553 107.023 25.297C103.954 25.5333 101.41 23.0131 101.665 19.9887C101.856 17.5945 103.811 15.6728 106.212 15.4838C108.327 15.3105 110.203 16.4761 111.078 18.2088C111.459 18.9806 111.65 19.8627 111.586 20.7921Z" fill="white"/>
<path d="M29.1129 29.2979C31.7046 29.2979 34.1691 28.1953 35.8863 26.2579L34.662 25.2025C33.7716 24.4307 32.4678 24.2259 31.4184 24.7772C30.7188 25.1395 29.9397 25.3285 29.1288 25.3285C27.0936 25.3285 25.3446 24.1157 24.5814 22.383H38.1282V20.3983C38.1282 19.9257 38.0964 19.4532 38.0169 18.9806C37.2855 14.5387 33.39 11.3411 28.8108 11.4987C24.2793 11.6562 20.5269 15.2003 20.1612 19.6737C19.7319 24.9032 23.9136 29.2979 29.1129 29.2979ZM29.1129 15.468C31.1322 15.468 32.8971 16.6494 33.6762 18.4136H24.5655C25.3446 16.6809 27.0936 15.468 29.1129 15.468Z" fill="white"/>
<path d="M74.9367 15.09C75.2865 19.7997 83.2206 20.6818 83.2206 26.7147C83.2206 29.0774 81.1536 31.0149 78.7686 31.0149H0V32.275C0 33.7714 1.2243 34.9842 2.7348 34.9842H78.6255C82.9503 34.9842 86.6709 31.8182 87.1638 27.5653C88.1496 19.2642 75.4296 20.351 74.9367 15.09Z" fill="white"/>
<path d="M128.027 10.5536C129.569 10.5536 130.825 9.30918 130.825 7.78128C130.825 6.25338 129.569 5.009 128.027 5.009C127.263 5.009 126.58 5.30828 126.087 5.79658H94.43V0H93.158C91.6475 0 90.4232 1.21287 90.4232 2.70927V5.78083H76.8764C72.2495 5.78083 68.4971 9.4982 68.4971 14.0819C68.4971 21.4694 80.3585 21.1229 80.8037 25.7538C80.5175 20.9968 72.5198 20.1305 72.5198 14.0819C72.5198 11.7034 74.4755 9.76598 76.8764 9.76598H90.4232V28.4001C90.4232 28.9041 90.8366 29.2979 91.3295 29.2979H93.5237C94.0325 29.2979 94.43 28.8884 94.43 28.4001V9.76598H126.087C126.596 10.2543 127.279 10.5536 128.027 10.5536Z" fill="white"/>
<path d="M128.058 12.4595C128.17 12.4122 128.281 12.365 128.376 12.3335C128.488 12.2862 128.599 12.2547 128.71 12.2232C128.758 12.2075 128.822 12.1917 128.869 12.176C129.14 12.0972 129.426 12.05 129.712 12.0185C129.776 12.0185 129.823 12.0027 129.887 12.0027C130.141 11.9869 130.396 11.9869 130.65 12.0027C130.857 12.0185 131.063 12.05 131.27 12.0972C131.477 12.1445 131.684 12.2075 131.89 12.2862C130.761 11.7979 129.442 11.4829 127.852 11.4829C125.912 11.4829 124.131 12.0972 122.652 13.1211C122.239 12.1602 121.269 11.4829 120.14 11.4829H118.868V20.3825C118.868 20.3825 118.868 20.3825 118.868 20.3983V28.4001C118.868 28.9041 119.282 29.2979 119.774 29.2979H121.953C122.462 29.2979 122.859 28.8884 122.859 28.4001V20.3983C122.859 20.351 122.859 20.3038 122.859 20.2565C122.923 16.9014 125.26 13.6251 128.058 12.4595Z" fill="white"/>
<path d="M159 9.71872L152.386 12.554L153.578 13.4361C153.228 13.8299 152.688 14.4127 151.988 15.0585V0H148.729C147.568 0 146.63 0.929343 146.63 2.07921V18.5711C146.153 18.7601 145.66 18.9176 145.167 19.0279V4.77273H141.908C140.747 4.77273 139.809 5.70207 139.809 6.85194V18.4136C139.3 18.1301 138.823 17.7678 138.346 17.374V9.34068H135.087C133.926 9.34068 132.988 10.27 132.988 11.4199V13.3101C132.892 13.2628 132.813 13.2156 132.717 13.1841C132.511 13.1053 132.304 13.0423 132.097 12.995C131.891 12.9478 131.684 12.9163 131.477 12.9005C131.223 12.8848 130.968 12.869 130.714 12.9005C130.666 12.9005 130.603 12.9163 130.539 12.9163C130.253 12.9478 129.983 12.995 129.696 13.0738C129.649 13.0896 129.585 13.1053 129.537 13.1211C129.426 13.1526 129.315 13.1841 129.204 13.2313C129.092 13.2628 128.981 13.3101 128.886 13.3573C126.135 14.523 123.829 17.7205 123.702 21.0126C123.845 18.4293 126.024 16.3659 128.663 16.3659C128.838 16.3659 128.997 16.3659 129.156 16.3816C131.366 16.5392 132.717 17.752 134.371 19.2484C136.359 21.0441 138.839 23.2808 143.116 23.2808C149.858 23.2808 155.232 17.6418 156.758 15.8618L158.062 16.8227L159 9.71872Z" fill="white"/>
</g>
<defs>
<clipPath id="clip0_602_2027">
<rect width="159" height="35" fill="white"/>
</clipPath>
</defs>
</svg>
