<svg width="183" height="41" viewBox="0 0 183 41" fill="none" xmlns="http://www.w3.org/2000/svg">
<path d="M93.0187 29.8695C93.0187 29.7615 93.001 29.6715 93.001 29.5635C93.001 29.6535 93.0187 29.7615 93.0187 29.8695Z" fill="#451257"/>
<path d="M64.3424 33.5959H66.6482C67.2338 33.5959 67.7462 33.2718 67.9841 32.7498L76.9877 13.2358H73.9499C72.7055 13.2358 71.5892 13.9559 71.0768 15.054L65.4953 27.1512L59.9321 15.054C59.4197 13.9379 58.3034 13.2358 57.059 13.2358H54.0029L63.0065 32.7498C63.2444 33.2718 63.7751 33.5959 64.3424 33.5959Z" fill="#451257"/>
<path d="M86.2472 17.3581C86.2295 17.2321 86.2295 17.1241 86.2295 16.998C86.2295 17.1241 86.2295 17.2501 86.2472 17.3581Z" fill="#451257"/>
<path d="M10.3395 33.5959H12.6453C13.2309 33.5959 13.7433 33.2718 13.9812 32.7498L22.9848 13.2358H19.947C18.7026 13.2358 17.5863 13.9559 17.0739 15.054L11.4924 27.1512L5.9109 15.054C5.3985 13.9379 4.2822 13.2358 3.0378 13.2358H0L9.0036 32.7498C9.2415 33.2718 9.7722 33.5959 10.3395 33.5959Z" fill="#451257"/>
<path d="M48.5861 33.5957H51.1115C51.6971 33.5957 52.1546 33.1276 52.1546 32.5696V0.112305H50.6906C48.9521 0.112305 47.543 1.49844 47.543 3.20861V32.5696C47.543 33.1456 48.0005 33.5957 48.5861 33.5957Z" fill="#451257"/>
<path d="M129.911 13.2358H128.447V14.946C126.599 13.7219 124.312 13.0738 121.878 13.2718C116.827 13.6679 112.783 17.6823 112.398 22.6508C111.941 28.6094 116.754 33.6139 122.719 33.6139C124.842 33.6139 126.8 32.9838 128.447 31.9037V32.5698C128.447 33.1458 128.923 33.5959 129.49 33.5959H132.016C132.601 33.5959 133.059 33.1278 133.059 32.5698V16.3502C133.059 14.622 131.65 13.2358 129.911 13.2358ZM128.429 23.8749C128.374 24.595 128.173 25.297 127.843 25.9091C126.965 27.6373 125.208 28.8614 123.177 29.0234C119.645 29.2934 116.717 26.4132 117.01 22.9568C117.229 20.2205 119.48 18.0243 122.244 17.8083C124.678 17.6103 126.837 18.9424 127.843 20.9226C128.283 21.8047 128.502 22.8128 128.429 23.8749Z" fill="#451257"/>
<path d="M33.5078 33.5955C36.4907 33.5955 39.3272 32.3353 41.3036 30.1211L39.8945 28.915C38.8697 28.0329 37.3691 27.7989 36.1613 28.429C35.3561 28.843 34.4594 29.059 33.5261 29.059C31.1837 29.059 29.1707 27.6729 28.2923 25.6927H43.8839V23.4245C43.8839 22.8844 43.8473 22.3443 43.7558 21.8043C42.914 16.7278 38.4305 13.0734 33.1601 13.2534C27.9446 13.4335 23.6258 17.4839 23.2049 22.5964C22.7108 28.573 27.5237 33.5955 33.5078 33.5955ZM33.5078 17.7899C35.8319 17.7899 37.8632 19.14 38.7599 21.1562H28.274C29.1707 19.176 31.1837 17.7899 33.5078 17.7899Z" fill="#451257"/>
<path d="M86.2479 17.3579C86.6505 22.7404 95.7822 23.7485 95.7822 30.6432C95.7822 33.3435 93.4032 35.5577 90.6582 35.5577H0V36.9979C0 38.708 1.4091 40.0942 3.1476 40.0942H90.4935C95.4711 40.0942 99.7533 36.4758 100.321 31.6153C101.455 22.1284 86.8152 23.3705 86.2479 17.3579Z" fill="#451257"/>
<path d="M147.351 12.1735C149.126 12.1735 150.572 10.7514 150.572 9.00519C150.572 7.25902 149.126 5.83688 147.351 5.83688C146.473 5.83688 145.686 6.17891 145.119 6.73697H108.683V0.112305H107.219C105.481 0.112305 104.072 1.49844 104.072 3.20861V6.71897H88.48C83.1547 6.71897 78.8359 10.9674 78.8359 16.2059C78.8359 24.6488 92.4877 24.2527 93.0001 29.5452C92.6707 24.1087 83.4658 23.1186 83.4658 16.2059C83.4658 13.4876 85.7167 11.2734 88.48 11.2734H104.072V32.5696C104.072 33.1456 104.547 33.5957 105.115 33.5957H107.64C108.226 33.5957 108.683 33.1276 108.683 32.5696V11.2734H145.119C145.704 11.8315 146.491 12.1735 147.351 12.1735Z" fill="#451257"/>
<path d="M147.388 14.352C147.516 14.2979 147.644 14.2439 147.754 14.2079C147.882 14.1539 148.01 14.1179 148.138 14.0819C148.193 14.0639 148.266 14.0459 148.321 14.0279C148.632 13.9379 148.962 13.8839 149.291 13.8479C149.364 13.8479 149.419 13.8299 149.492 13.8299C149.785 13.8119 150.078 13.8119 150.371 13.8299C150.609 13.8479 150.847 13.8839 151.085 13.9379C151.322 13.9919 151.56 14.0639 151.798 14.1539C150.499 13.5959 148.98 13.2358 147.15 13.2358C144.917 13.2358 142.868 13.9379 141.166 15.108C140.69 14.0099 139.574 13.2358 138.275 13.2358H136.811V23.4069C136.811 23.4069 136.811 23.4069 136.811 23.4249V32.5698C136.811 33.1458 137.286 33.5959 137.854 33.5959H140.361C140.946 33.5959 141.404 33.1278 141.404 32.5698V23.4249C141.404 23.3709 141.404 23.3168 141.404 23.2628C141.477 19.4285 144.167 15.6841 147.388 14.352Z" fill="#451257"/>
<path d="M183 11.2194L175.387 14.4597L176.76 15.4678C176.357 15.9179 175.735 16.584 174.93 17.322V0.112305H171.178C169.842 0.112305 168.763 1.17441 168.763 2.48854V21.3364C168.214 21.5524 167.646 21.7325 167.079 21.8585V5.56685H163.328C161.992 5.56685 160.912 6.62896 160.912 7.94309V21.1564C160.326 20.8324 159.777 20.4183 159.228 19.9683V10.7874H155.477C154.141 10.7874 153.061 11.8495 153.061 13.1636V15.3238C152.951 15.2698 152.86 15.2158 152.75 15.1798C152.512 15.0898 152.274 15.0178 152.036 14.9638C151.799 14.9098 151.561 14.8738 151.323 14.8558C151.03 14.8378 150.737 14.8198 150.444 14.8558C150.389 14.8558 150.316 14.8738 150.243 14.8738C149.914 14.9098 149.603 14.9638 149.273 15.0538C149.218 15.0718 149.145 15.0898 149.09 15.1078C148.962 15.1438 148.834 15.1798 148.706 15.2338C148.578 15.2698 148.45 15.3238 148.34 15.3778C145.174 16.71 142.52 20.3643 142.374 24.1267C142.539 21.1744 145.046 18.8162 148.084 18.8162C148.285 18.8162 148.468 18.8162 148.651 18.8342C151.195 19.0142 152.75 20.4003 154.653 22.1105C156.941 24.1627 159.796 26.719 164.718 26.719C172.478 26.719 178.663 20.2743 180.42 18.2401L181.92 19.3382L183 11.2194Z" fill="#451257"/>
</svg>
